<?xml version="1.0" encoding="utf-8"?>
<!-- Generator: Adobe Illustrator 24.1.0, SVG Export Plug-In . SVG Version: 6.00 Build 0)  -->
<svg version="1.1" id="圖層_1" xmlns="http://www.w3.org/2000/svg" xmlns:xlink="http://www.w3.org/1999/xlink" x="0px" y="0px"
	 viewBox="0 0 167 146" style="enable-background:new 0 0 167 146;" xml:space="preserve">
<style type="text/css">
	.st0{fill:#701B40;}
	.st1{fill:#D33177;}
	.st2{fill:#FFFFFF;}
	.st3{fill:#FFE699;}
</style>
<g>
	<path class="st0" d="M144.5,143.6H21.9c-11,0-20-9-20-20v-102c0-11,9-20,20-20h122.7c11,0,20,9,20,20v102
		C164.5,134.6,155.6,143.6,144.5,143.6z"/>
	<path class="st1" d="M136.8,120.8H30.4c-11,0-20-9-20-20V27.2c0-11,9-20,20-20h106.4c11,0,20,9,20,20v73.6
		C156.8,111.8,147.8,120.8,136.8,120.8z"/>
	<g>
		<path class="st2" d="M71.8,55.3c0,0.1,0,0.1,0,0.2c0,0.1,0.1,0.1,0.2,0.1h7.8c0.6,0,1.1,0.2,1.6,0.7c0.4,0.4,0.7,1,0.7,1.6V59
			c0,0.6-0.2,1.1-0.7,1.6c-0.4,0.4-1,0.7-1.6,0.7H48.8c-0.6,0-1.1-0.2-1.6-0.7c-0.4-0.4-0.7-1-0.7-1.6v-1.2c0-0.6,0.2-1.1,0.7-1.6
			c0.4-0.4,1-0.7,1.6-0.7h16.6c0.2,0,0.3-0.1,0.4-0.3c1.6-4.5,2.8-9.2,3.5-14.3c0.1-0.6,0.4-1.1,0.9-1.4c0.4-0.3,0.8-0.4,1.2-0.4
			c0.1,0,0.2,0,0.4,0l2.1,0.4c0.6,0.1,1.1,0.4,1.4,0.9c0.2,0.4,0.4,0.7,0.4,1.1c0,0.2,0,0.4-0.1,0.5C74.5,46.9,73.2,51.2,71.8,55.3z
			 M78.6,32.3c0.6,0,1.1,0.2,1.6,0.7c0.4,0.4,0.7,1,0.7,1.6v1.1c0,0.6-0.2,1.1-0.7,1.6c-0.4,0.4-1,0.7-1.6,0.7H50.1
			c-0.6,0-1.1-0.2-1.6-0.7c-0.4-0.4-0.7-1-0.7-1.6v-1.1c0-0.6,0.2-1.1,0.7-1.6c0.4-0.4,1-0.7,1.6-0.7h10.9c0.2,0,0.3-0.1,0.3-0.3
			v-3.8c0-0.6,0.2-1.1,0.7-1.6c0.4-0.4,1-0.7,1.6-0.7h1.5c0.6,0,1.1,0.2,1.6,0.7c0.4,0.4,0.7,1,0.7,1.6V32c0,0.2,0.1,0.3,0.3,0.3
			H78.6z M61.3,51c0,0.2,0,0.3,0,0.4c0,0.5-0.1,0.9-0.4,1.4c-0.4,0.5-0.8,0.9-1.5,1.1L58,54.2c-0.2,0.1-0.4,0.1-0.5,0.1
			c-0.4,0-0.7-0.1-1-0.3c-0.5-0.3-0.8-0.8-0.8-1.4c-0.4-3.1-1.1-6.5-2.3-10.1c-0.1-0.2-0.1-0.4-0.1-0.6c0-0.4,0.1-0.7,0.3-1
			c0.3-0.5,0.7-0.9,1.3-1l1.1-0.3c0.2,0,0.4-0.1,0.6-0.1c0.4,0,0.8,0.1,1.1,0.3c0.6,0.3,0.9,0.7,1.1,1.3
			C59.9,44.5,60.8,47.8,61.3,51z"/>
		<path class="st2" d="M94.9,52.6c-0.2-0.3-0.3-0.7-0.3-1c0-0.2,0-0.4,0.1-0.6c0.2-0.6,0.5-1,1.1-1.2l0.5-0.3
			c0.4-0.2,0.7-0.2,1.1-0.2c0.2,0,0.5,0,0.7,0.1c0.6,0.2,1.1,0.5,1.4,1.1c1.6,2.4,2.8,4.7,3.6,6.7c0.1,0.3,0.2,0.6,0.2,0.9
			c0,0.3-0.1,0.6-0.2,0.9c-0.3,0.6-0.7,1-1.2,1.3l-1,0.5c-0.3,0.1-0.5,0.2-0.8,0.2c-0.3,0-0.5-0.1-0.8-0.2c-0.5-0.2-0.9-0.6-1.1-1.2
			c-0.1-0.2-0.2-0.5-0.3-0.7c-0.1-0.2-0.2-0.2-0.4-0.2c-5.4,1.5-8.6,2.3-9.5,2.6c-0.2,0-0.4,0.1-0.6,0.1c-0.4,0-0.7-0.1-1.1-0.3
			c-0.6-0.3-0.9-0.8-1.1-1.4L85,58.1c-0.1-0.2-0.1-0.4-0.1-0.6c0-0.4,0.1-0.7,0.3-1.1c0.3-0.5,0.8-0.8,1.4-0.9c0,0,0.1,0,0.2,0
			c0.2,0,0.3-0.2,0.3-0.3V30.9c0-0.6,0.2-1.2,0.7-1.6c0.4-0.4,1-0.6,1.6-0.6h11c0.6,0,1.1,0.2,1.6,0.6c0.4,0.4,0.7,1,0.7,1.6v15.2
			c0,0.6-0.2,1.1-0.7,1.6c-0.4,0.4-1,0.7-1.6,0.7h-7.6c-0.2,0-0.3,0.1-0.3,0.3v5.4c0,0.2,0.1,0.3,0.3,0.2l2.6-0.6
			c0.2,0,0.2-0.2,0.2-0.3C95.2,53.1,95.1,52.9,94.9,52.6z M97.3,34.1c0-0.2-0.1-0.3-0.3-0.3h-4.4c-0.2,0-0.3,0.1-0.3,0.3v1.7
			c0,0.2,0.1,0.3,0.3,0.3H97c0.2,0,0.3-0.1,0.3-0.3V34.1z M92.3,42.9c0,0.2,0.1,0.3,0.3,0.3H97c0.2,0,0.3-0.1,0.3-0.3v-1.7
			c0-0.2-0.1-0.3-0.3-0.3h-4.4c-0.2,0-0.3,0.1-0.3,0.3V42.9z M117.4,28.6c0.6,0,1.1,0.2,1.6,0.6c0.4,0.4,0.7,1,0.7,1.6v21
			c0,1.4-0.1,2.5-0.4,3.3c-0.3,0.8-0.8,1.5-1.5,2c-0.9,0.6-2.1,1-3.5,1.1c-0.1,0-0.2,0-0.2,0c-0.5,0-1-0.2-1.4-0.5
			c-0.5-0.4-0.8-0.9-1-1.6c-0.2-0.6-0.4-1.3-0.6-1.9c-0.1-0.2-0.1-0.3-0.1-0.5c0-0.3,0.1-0.6,0.3-0.8c0.3-0.4,0.7-0.6,1.2-0.6
			c0.2,0,0.4,0,0.6,0c0.2,0,0.3,0,0.4,0c0.2,0,0.4,0,0.5-0.1c0.1-0.1,0.1-0.2,0.1-0.5V34.5c0-0.2-0.1-0.3-0.3-0.3h-3.4
			c-0.2,0-0.3,0.1-0.3,0.3v26.6c0,0.6-0.2,1.2-0.6,1.6c-0.4,0.4-1,0.6-1.6,0.6h-1.3c-0.6,0-1.2-0.2-1.6-0.6c-0.4-0.4-0.6-1-0.6-1.6
			V30.8c0-0.6,0.2-1.2,0.6-1.6c0.4-0.4,1-0.6,1.6-0.6H117.4z"/>
		<path class="st2" d="M56.9,84.2c0.2,0,0.3-0.1,0.5-0.1c0.4,0,0.8,0.1,1.1,0.4c0.5,0.4,0.8,0.8,0.8,1.4l0.1,0.6c0,0.1,0,0.3,0,0.4
			c0,0.5-0.1,0.9-0.4,1.4c-0.4,0.5-0.8,0.9-1.5,1.1c-0.7,0.2-1.1,0.3-1.4,0.4c-0.2,0-0.3,0.1-0.3,0.3v8.2c0,1.3-0.1,2.3-0.4,3
			c-0.3,0.7-0.8,1.3-1.4,1.7c-0.9,0.5-2.3,0.8-4,0.9c-0.1,0-0.1,0-0.2,0c-0.6,0-1.1-0.2-1.5-0.6c-0.5-0.4-0.8-0.9-1-1.5
			c-0.1-0.3-0.2-0.6-0.3-0.8c-0.1-0.2-0.1-0.3-0.1-0.5c0-0.3,0.1-0.6,0.3-0.9c0.3-0.4,0.7-0.6,1.2-0.6h0c0.4,0,0.8,0,1.2,0
			c0.3,0,0.5-0.1,0.6-0.2c0.1-0.1,0.2-0.3,0.2-0.5v-6.8c0-0.1,0-0.1-0.1-0.2c-0.1,0-0.1-0.1-0.2,0l-1.1,0.3c-0.2,0-0.4,0-0.5,0
			c-0.4,0-0.8-0.1-1.1-0.3c-0.5-0.3-0.9-0.8-1-1.4l-0.3-1.1c-0.1-0.2-0.1-0.4-0.1-0.6c0-0.4,0.1-0.7,0.3-1.1
			c0.3-0.5,0.8-0.8,1.4-0.9c0.7-0.1,1.5-0.3,2.4-0.5c0.2,0,0.3-0.1,0.3-0.3v-5.5c0-0.2-0.1-0.3-0.3-0.3h-1.8c-0.6,0-1.2-0.2-1.6-0.6
			c-0.4-0.4-0.6-1-0.6-1.6v-0.7c0-0.6,0.2-1.2,0.6-1.6c0.4-0.4,1-0.6,1.6-0.6h1.8c0.2,0,0.3-0.1,0.3-0.3v-4.5c0-0.6,0.2-1.1,0.7-1.6
			c0.4-0.4,1-0.7,1.6-0.7h1c0.6,0,1.1,0.2,1.6,0.7c0.4,0.4,0.7,1,0.7,1.6V74c0,0.2,0.1,0.3,0.3,0.3H57c0.6,0,1.1,0.2,1.6,0.6
			c0.4,0.4,0.7,1,0.7,1.6v0.7c0,0.6-0.2,1.2-0.7,1.6c-0.4,0.4-1,0.6-1.6,0.6h-0.9c-0.2,0-0.3,0.1-0.3,0.3v4.4c0,0.2,0.1,0.2,0.3,0.2
			L56.9,84.2z M73.2,75.5c0,0.2,0.1,0.3,0.3,0.3h6c0.6,0,1.1,0.2,1.6,0.6c0.4,0.4,0.7,1,0.7,1.6v23.3c0,0.6-0.2,1.2-0.7,1.6
			c-0.4,0.4-1,0.6-1.6,0.6h-1.2c-0.6,0-1.1-0.2-1.6-0.6c-0.4-0.4-0.7-1-0.7-1.6v-0.1c0-0.2-0.1-0.3-0.3-0.3H65.5
			c-0.2,0-0.3,0.1-0.3,0.3v0.3c0,0.6-0.2,1.2-0.7,1.6c-0.4,0.4-1,0.6-1.6,0.6h-0.9c-0.6,0-1.1-0.2-1.6-0.6c-0.4-0.4-0.7-1-0.7-1.6
			V78c0-0.6,0.2-1.2,0.7-1.6c0.4-0.4,1-0.6,1.6-0.6h5.6c0.2,0,0.3-0.1,0.3-0.3v-5.9c0-0.6,0.2-1.2,0.7-1.6c0.4-0.4,1-0.6,1.6-0.6H71
			c0.6,0,1.1,0.2,1.6,0.6c0.4,0.4,0.7,1,0.7,1.6V75.5z M67.9,81.4c0-0.2-0.1-0.3-0.3-0.3h-2.2c-0.2,0-0.3,0.1-0.3,0.3v3.9
			c0,0.2,0.1,0.3,0.3,0.3h2.2c0.2,0,0.3-0.1,0.3-0.3V81.4z M65.5,90.7c-0.2,0-0.3,0.1-0.3,0.3v4.3c0,0.2,0.1,0.3,0.3,0.3h2.2
			c0.2,0,0.3-0.1,0.3-0.3V91c0-0.2-0.1-0.3-0.3-0.3H65.5z M76.1,81.4c0-0.2-0.1-0.3-0.3-0.3h-2.4c-0.2,0-0.3,0.1-0.3,0.3v3.9
			c0,0.2,0.1,0.3,0.3,0.3h2.4c0.2,0,0.3-0.1,0.3-0.3V81.4z M73.2,95.3c0,0.2,0.1,0.3,0.3,0.3h2.4c0.2,0,0.3-0.1,0.3-0.3V91
			c0-0.2-0.1-0.3-0.3-0.3h-2.4c-0.2,0-0.3,0.1-0.3,0.3V95.3z"/>
		<path class="st2" d="M120.4,94.1c0,0.6-0.2,1.1-0.7,1.6c-0.4,0.4-1,0.7-1.6,0.7h-9.4c-0.1,0-0.1,0-0.1,0.1s0,0.1,0,0.1
			c2.2,1.3,5.7,2.1,10.7,2.3c0.4,0,0.7,0.2,0.9,0.6c0.1,0.2,0.1,0.3,0.1,0.5c0,0.2-0.1,0.5-0.2,0.7c-0.3,0.4-0.6,0.9-0.8,1.3
			c-0.4,0.6-0.8,1.1-1.4,1.4c-0.5,0.3-1,0.4-1.5,0.4c-0.1,0-0.2,0-0.3,0c-3.2-0.3-5.9-0.9-8-1.7c-2.1-0.8-3.8-2-5.2-3.6
			c-0.1-0.1-0.3-0.1-0.4,0c-2.4,2.6-6.9,4.3-13.4,5.3c-0.2,0-0.3,0-0.5,0c-0.5,0-1-0.1-1.4-0.4c-0.6-0.3-1.1-0.7-1.4-1.3
			c-0.2-0.3-0.4-0.6-0.6-0.9c-0.2-0.3-0.3-0.5-0.3-0.8c0-0.2,0-0.4,0.1-0.5c0.2-0.5,0.5-0.7,1-0.8c4.7-0.6,8.1-1.5,10.3-2.7
			c0,0,0,0,0-0.1c0,0,0-0.1-0.1-0.1h-9.3c-0.6,0-1.1-0.2-1.6-0.7c-0.4-0.4-0.7-1-0.7-1.6V94c0-0.6,0.2-1.2,0.7-1.6
			c0.4-0.4,1-0.6,1.6-0.6h12c0.2,0,0.3-0.1,0.3-0.3v-0.9c0-0.6,0.2-1.2,0.7-1.6c0.4-0.4,1-0.6,1.6-0.6h1.1c0.6,0,1.2,0.2,1.6,0.6
			c0.4,0.4,0.6,1,0.6,1.6v0.9c0,0.2,0.1,0.3,0.3,0.3h4.8c0,0,0,0,0.1,0c0,0,0,0,0-0.1c-0.2,0-0.4-0.1-0.6-0.2
			c-0.5-0.2-0.9-0.5-1.1-1c-0.1-0.2-0.1-0.3-0.1-0.5c0-0.3,0.1-0.6,0.3-0.9l0.2-0.3c0,0,0,0,0,0c-0.4,0-0.6-0.2-0.7-0.6
			c-0.1-0.5-0.3-1.1-0.6-1.8c-0.1-0.2-0.2-0.2-0.3-0.1l-1.5,0.8c-0.4,0.2-0.7,0.3-1.1,0.3c-0.2,0-0.4,0-0.6-0.1
			c-0.6-0.2-1.1-0.5-1.4-1c-0.2-0.2-0.4-0.5-0.5-0.7c-0.3-0.3-0.4-0.7-0.4-1.1c0-0.1,0-0.2,0-0.3c0.1-0.5,0.3-0.9,0.8-1.2
			c0,0,0-0.1,0-0.1c0,0,0-0.1-0.1-0.1h-1.9c-0.5,0-1-0.2-1.3-0.5c-0.4-0.4-0.5-0.8-0.5-1.3v-0.2c0-0.5,0.2-0.8,0.5-1.2
			c0.3-0.3,0.7-0.5,1.2-0.5c0,0,0.1,0,0.1-0.1c0,0,0-0.1,0-0.1c-0.1-0.3-0.3-0.6-0.5-0.9c-0.1-0.2-0.2-0.5-0.2-0.7
			c0-0.2,0-0.4,0.1-0.6c0.2-0.5,0.5-0.7,1-0.8c0.5,0,1-0.1,1.5-0.2c0,0,0.1,0,0.1-0.1c0-0.1,0-0.1,0-0.2c-0.3-0.2-0.6-0.6-1.2-1.1
			c-0.1-0.1-0.2-0.1-0.3-0.1c-0.2,0.1-0.3,0.1-0.5,0.1c-0.3,0-0.5,0-0.7-0.2c-0.4-0.2-0.7-0.4-1-0.8c-0.3-0.4-0.6-0.7-0.9-1.1
			c0,0-0.1-0.1-0.1,0c-0.1,0-0.1,0.1-0.1,0.1v15c0,0.6-0.2,1.2-0.7,1.6c-0.4,0.4-1,0.6-1.6,0.6h-0.6c-0.6,0-1.2-0.2-1.6-0.6
			c-0.4-0.4-0.6-1-0.6-1.6v-4.5c0-0.2-0.1-0.3-0.3-0.3h-0.9c-0.2,0-0.3,0.1-0.3,0.3c-0.1,2.3-0.6,4.2-1.6,5.9
			c-0.3,0.5-0.8,0.8-1.5,0.9c-0.1,0-0.2,0-0.3,0c-0.5,0-1-0.1-1.5-0.4c-0.1,0-0.2-0.1-0.3-0.2c-0.5-0.2-0.7-0.6-0.8-1.2
			c0-0.2,0-0.3,0-0.5c0-0.4,0.1-0.7,0.3-1.1c0.6-1,0.9-2.2,0.9-3.6c0-0.2-0.1-0.3-0.3-0.3c-0.5,0-1-0.2-1.3-0.6
			c-0.4-0.4-0.5-0.8-0.5-1.4v-0.2c0-0.6,0.2-1.1,0.6-1.5c0.4-0.4,0.9-0.6,1.5-0.6h6c0.2,0,0.3-0.1,0.3-0.3v-1c0-0.2-0.1-0.3-0.3-0.3
			h-4.2c-0.6,0-1.2-0.2-1.6-0.6c-0.4-0.4-0.6-1-0.6-1.6v-4.1c0-0.6,0.2-1.1,0.6-1.6c0.4-0.4,1-0.7,1.6-0.7h0.2
			c0.6,0,1.1,0.2,1.6,0.7c0.4,0.4,0.7,1,0.7,1.6v1.9c0,0.2,0.1,0.3,0.3,0.3h1.6c0.2,0,0.3-0.1,0.3-0.3v-3c0-0.6,0.2-1.1,0.6-1.6
			c0.4-0.4,1-0.7,1.6-0.7h0.6c0.6,0,1.1,0.2,1.6,0.7c0.4,0.4,0.7,1,0.7,1.6v1.7c0,0.2,0.1,0.3,0.3,0.2c3.7-0.8,6.6-1.7,8.8-2.9
			c1.1-0.6,2.1-0.9,3-0.9c0.3,0,0.7,0,1,0.1l1.2,0.3c0.2,0.1,0.4,0.2,0.4,0.5c0.1,0.2,0,0.4-0.2,0.6c0,0,0,0.1,0,0.1c0,0,0,0,0.1,0
			h3.6c0,0,0.1,0,0.2,0c0.2,0,0.3,0,0.4,0c0.4,0,0.7,0.1,1,0.2l0.8,0.4c0.4,0.2,0.7,0.5,0.8,0.9c0.1,0.4,0,0.8-0.2,1.1
			c-1.5,2.1-3.7,3.8-6.4,5c0,0,0,0.1,0,0.1c0,0,0,0,0,0h1.7c0.6,0,1.1,0.2,1.4,0.6c0.4,0.4,0.6,0.9,0.6,1.5c0,0.2,0.1,0.3,0.3,0.3
			h2.6c0.5,0,1,0.2,1.3,0.5c0.4,0.4,0.5,0.8,0.5,1.3s-0.2,1-0.5,1.3c-0.4,0.4-0.8,0.5-1.3,0.5h-2.6c-0.2,0-0.3,0.1-0.3,0.3v1.2
			c0,1.1-0.1,1.9-0.4,2.5c-0.3,0.6-0.8,1-1.5,1.2c-0.4,0.2-0.8,0.3-1.3,0.4c-0.1,0-0.1,0-0.1,0c0,0,0,0.1,0,0.1c1.2,0.4,2.2,0.7,3,1
			c0.4,0.2,0.7,0.4,0.8,0.9c0,0.1,0.1,0.3,0.1,0.4c0,0.3-0.1,0.5-0.3,0.8c0,0,0,0.1,0,0.1c0,0.1,0,0.1,0.1,0.1h1.4
			c0.6,0,1.1,0.2,1.6,0.6c0.4,0.4,0.7,1,0.7,1.6V94.1z M110.7,79.1c0.2,0,0.3-0.1,0.3-0.3v-1.2c0,0,0-0.1-0.1-0.2
			c-0.1,0-0.1-0.1-0.2,0c-1.9,0.7-4,1.3-6.4,1.7v0H110.7z M104.7,73.3c-0.1,0-0.1,0.1-0.1,0.1c0,0.1,0,0.1,0.1,0.2
			c0.5,0.4,0.9,0.8,1.4,1.3c0.1,0.1,0.3,0.2,0.5,0.1c0.3-0.1,0.6-0.2,1.1-0.3c0,0,0.1-0.1,0.1-0.1c0,0,0-0.1-0.1-0.2
			c-0.6-0.5-1.2-0.9-1.8-1.3c-0.2-0.1-0.3-0.1-0.5,0C105.3,73.1,105,73.2,104.7,73.3z M111,83.2c0-0.2-0.1-0.3-0.3-0.3h-5
			c-0.1,0-0.1,0-0.1,0.1c0,0.1,0,0.1,0,0.2c0.5,0.5,0.9,0.9,1.2,1.4c0.1,0.2,0.3,0.2,0.5,0.3c0.8,0,1.8,0,3,0c0.2,0,0.4,0,0.5-0.1
			c0.1-0.1,0.2-0.2,0.2-0.4V83.2z M112.8,72.2c0,0,0.1-0.1,0.1-0.1c0,0,0-0.1-0.1-0.1h-3.5c0,0,0,0-0.1,0.1c0,0.1,0,0.1,0,0.1
			c0.6,0.4,1.1,0.7,1.4,1c0.2,0.1,0.3,0.2,0.5,0.1C111.7,72.9,112.2,72.5,112.8,72.2z"/>
	</g>
	<g>
		<polygon class="st3" points="140.4,31.9 143.3,26.8 146.1,31.9 151.2,34.7 146.1,37.5 143.3,42.7 140.4,37.5 135.3,34.7 		"/>
		<polygon class="st3" points="134.5,68.2 135.9,65.7 137.3,68.2 139.8,69.6 137.3,71 135.9,73.6 134.5,71 131.9,69.6 		"/>
		<polygon class="st3" points="141.8,102.6 143.2,100 144.6,102.6 147.1,104 144.6,105.4 143.2,108 141.8,105.4 139.2,104 		"/>
		<polygon class="st3" points="18.1,74.1 19.3,71.9 20.5,74.1 22.7,75.3 20.5,76.5 19.3,78.7 18.1,76.5 15.9,75.3 		"/>
		<polygon class="st3" points="30,93.5 32.3,89.2 34.6,93.5 38.8,95.8 34.6,98.1 32.3,102.4 30,98.1 25.7,95.8 		"/>
		<polygon class="st3" points="35.2,29.5 36.7,26.9 38.1,29.5 40.8,31 38.1,32.5 36.7,35.1 35.2,32.5 32.5,31 		"/>
	</g>
</g>
</svg>
