<?xml version="1.0" encoding="utf-8"?>
<!-- Generator: Adobe Illustrator 24.1.0, SVG Export Plug-In . SVG Version: 6.00 Build 0)  -->
<svg version="1.1" id="圖層_1" xmlns="http://www.w3.org/2000/svg" xmlns:xlink="http://www.w3.org/1999/xlink" x="0px" y="0px"
	 viewBox="0 0 255 54" style="enable-background:new 0 0 255 54;" xml:space="preserve">
<style type="text/css">
	.st0{fill:#701B40;}
	.st1{fill:#D33177;}
	.st2{fill:#FFFFFF;}
	.st3{font-family:'NotoSansCJKtc-Bold-B5pc-H';}
	.st4{font-size:24px;}
</style>
<g>
	<path class="st0" d="M227.1,52.3h-200c-13.8,0-25-11.2-25-25v0c0-13.8,11.2-25,25-25h200c13.8,0,25,11.2,25,25v0
		C252.1,41.1,240.9,52.3,227.1,52.3z"/>
	<path class="st1" d="M219.6,44.3h-185c-11,0-20-9-20-20v0c0-11,9-20,20-20h185c11,0,20,9,20,20v0C239.6,35.3,230.6,44.3,219.6,44.3
		z"/>
	<text transform="matrix(1 0 0 1 55.057 33.1586)" class="st2 st3 st4">繼續其他任務</text>
</g>
</svg>
