<?xml version="1.0" encoding="utf-8"?>
<!-- Generator: Adobe Illustrator 24.1.0, SVG Export Plug-In . SVG Version: 6.00 Build 0)  -->
<svg version="1.1" id="圖層_1" xmlns="http://www.w3.org/2000/svg" xmlns:xlink="http://www.w3.org/1999/xlink" x="0px" y="0px"
	 viewBox="0 0 344 198" style="enable-background:new 0 0 344 198;" xml:space="preserve">
<style type="text/css">
	.st0{display:none;}
	.st1{display:inline;}
	.st2{fill:#24272A;}
	.st3{fill:#CE0E2D;}
	.st4{fill:#F2A138;}
	.st5{fill:#102E64;}
	.st6{fill:#FEC349;}
	.st7{fill:#FEE662;}
	.st8{fill:#F4B72F;}
	.st9{fill:#FBE79C;}
	.st10{opacity:0.21;fill:#FFFFFF;}
	.st11{fill:#D33177;}
	.st12{fill:#FFFFFF;}
	.st13{fill:none;}
	.st14{fill:#595959;}
	.st15{font-family:'NotoSansCJKtc-Bold-B5pc-H';}
	.st16{font-size:12px;}
	.st17{font-family:'NotoSansCJKtc-Regular-B5pc-H';}
</style>
<g class="st0">
	<g class="st1">
		<g>
			<polygon class="st2" points="117.8,51.9 115.3,51.9 115.3,49.7 114.2,49.7 114.2,55.2 115.3,55.2 115.3,52.9 117.8,52.9 
				117.8,55.2 118.9,55.2 118.9,49.7 117.8,49.7 			"/>
			<path class="st2" d="M124,52.8c0,0.9-0.4,1.4-1.2,1.4c-0.8,0-1.2-0.5-1.2-1.4v-3.1h-1.1v3.1c0,1.5,0.9,2.4,2.3,2.4
				c1.5,0,2.4-0.9,2.4-2.5v-3.1H124V52.8z"/>
			<polygon class="st2" points="136.7,53.5 135.5,49.7 134.6,49.7 133.4,53.5 132.2,49.7 131,49.7 132.9,55.2 133.8,55.2 135,51.6 
				136.3,55.2 137.2,55.2 139.1,49.7 137.9,49.7 			"/>
			<polygon class="st2" points="141.1,52.8 143.1,52.8 143.1,51.8 141.1,51.8 141.1,50.7 144,50.7 144,49.7 140,49.7 140,55.2 
				144.1,55.2 144.1,54.2 141.1,54.2 			"/>
			<rect x="145.4" y="49.7" class="st2" width="1.1" height="5.4"/>
			<path class="st2" d="M129.7,54l0.5,1.1h1.2l-2.4-5.4l0,0h-1l-2.4,5.4h1.1l0.5-1.1h0l0-0.1H129.7z M128.5,51.1l0.8,1.8h0l0.1,0.1
				h-1.7l0.1-0.1h0L128.5,51.1z"/>
		</g>
		<g>
			<path class="st3" d="M128.1,41.1c-0.1-0.2-0.2-0.4-0.3-0.7c-0.1-0.3-0.3-0.6-0.4-0.9c-0.8-1.7-1.7-3.3-2.6-4.8
				c-0.7-1.2-1.5-2.4-2.1-3.4l0,0c-2-3-3.5-4.8-3.5-4.8c0,0,0,0,0,0s0,0,0,0c-0.1,0.1-2.8,2.7-2.6,5.4c0.1,1.4,0.8,2.4,1.3,2.9
				c0.2,0.2,0.4,0.4,0.4,0.4c1.1,1,2.8,2.2,4.5,3.2l0,0c1.4,0.8,2.7,1.5,3.7,2.1c0.4,0.2,0.7,0.4,1,0.5c0.2,0.1,0.4,0.2,0.6,0.3
				c0,0,0.1,0,0.1,0C128,41.2,128.1,41.2,128.1,41.1L128.1,41.1z"/>
			<path class="st3" d="M127.1,43.3C127.1,43.2,127.1,43.2,127.1,43.3c-0.1-0.1-0.1-0.1-0.1-0.1v0l-0.2,0h-9.7v0.3l0,0c0,0,0,0,0,0
				c1.1,1.9,2.9,3.4,4.8,2.9c1.3-0.3,4.3-2.4,5.2-3.1l0,0C127.1,43.3,127.1,43.3,127.1,43.3z"/>
			<path class="st3" d="M127.2,42.2L127.2,42.2c-0.5-0.3-0.9-0.6-1.5-1c-0.4-0.3-0.9-0.5-1.3-0.8c-0.6-0.4-1.2-0.7-1.8-1.1h0
				c-2.4-1.4-4.8-2.7-6.4-3.6c-1.1-0.6-1.8-1-1.8-1c-0.8,2.4,0.3,4.3,0.3,4.3c0.4,0.9,1,1.6,1.6,2c0.1,0.1,0.1,0.1,0.2,0.2
				c0.7,0.6,1.3,0.8,1.3,0.8c1,0.4,1.9,0.4,1.9,0.4c0.1,0,5.9,0,7.5,0c0.1,0,0.1-0.1,0.1-0.1C127.3,42.3,127.2,42.2,127.2,42.2z"/>
			<path class="st3" d="M127.9,22.3c-0.4,0-1.6,0.3-1.6,0.3c-2.6,0.7-3.3,3.1-3.3,3.1c-0.1,0.3-0.2,0.6-0.2,0.9
				c-0.1,1.2,0.2,2.2,0.2,2.2c0.4,1.7,1.5,4,2.6,6c0.5,1,1.1,1.9,1.6,2.7c0.3,0.4,0.5,0.8,0.8,1.2c0.5,0.8,0.9,1.4,1.1,1.7
				c0.1,0.1,0.1,0,0.1,0c0.1,0,0.1-0.1,0.1-0.1l0,0c0.1-1.3,0.2-2.4,0.3-3.5c0.2-2.8,0.1-5.2,0-7.1C129.3,24,127.9,22.3,127.9,22.3z
				"/>
			<path class="st3" d="M133.6,43.2c0,0-0.1,0-0.1,0.1c0,0,0,0.1,0,0.1l0,0c1,0.7,3.8,2.7,5.2,3.1c0,0,2.6,0.9,4.8-2.9L133.6,43.2
				L133.6,43.2z"/>
			<path class="st3" d="M134.9,34.8c1.2-2,2.2-4.3,2.6-6c0,0,0.3-1.1,0.2-2.2c0-0.3-0.1-0.6-0.2-0.9c0,0-0.6-2.4-3.3-3.1
				c0,0-0.8-0.2-1.6-0.3c0,0-1.4,1.8-1.8,7.5c-0.1,1.9-0.2,4.2,0,7c0.1,1.1,0.2,2.3,0.3,3.6h0c0,0.1,0.1,0.1,0.1,0.1
				c0.1,0,0.1-0.1,0.1-0.1l0,0c0.2-0.3,0.6-0.9,1.1-1.7c0.2-0.4,0.5-0.8,0.8-1.2C133.8,36.6,134.3,35.7,134.9,34.8z"/>
			<path class="st3" d="M146.2,34.8c0,0-0.7,0.4-1.9,1c-1.6,0.9-4,2.2-6.3,3.6c-0.6,0.4-1.2,0.7-1.8,1.1c-0.5,0.3-0.9,0.5-1.3,0.8
				c-0.5,0.3-1,0.7-1.5,1l0,0c0,0-0.1,0.1-0.1,0.1c0,0,0,0.1,0.1,0.1v0c1.6,0,7.5,0,7.6,0c0,0,0.8,0,1.7-0.4c0,0,0.6-0.2,1.4-0.8
				c0.1,0,0.1-0.1,0.2-0.2c0.6-0.5,1.2-1.2,1.6-2.1C146,39,146.9,37,146.2,34.8z"/>
			<path class="st3" d="M138,38.3c1.7-1,3.5-2.2,4.5-3.2c0,0,0.2-0.1,0.4-0.4c0.5-0.5,1.2-1.5,1.3-2.9c0.2-2.8-2.6-5.3-2.6-5.3
				s-1.5,1.9-3.5,4.9c-0.7,1-1.4,2.1-2.1,3.3c-0.9,1.4-1.7,3-2.6,4.7c-0.2,0.3-0.3,0.6-0.5,1c-0.1,0.2-0.2,0.4-0.3,0.6h0
				c0,0,0,0.1,0,0.2c0,0,0.1,0.1,0.1,0v0c0.1-0.1,0.3-0.2,0.6-0.3c0.3-0.1,0.6-0.3,0.9-0.5C135.2,39.9,136.6,39.2,138,38.3z"/>
		</g>
	</g>
	<g class="st1">
		<path class="st4" d="M95,80.8l2.4-3.3c1.2,1.2,2.8,2.1,4.5,2.1c2.1,0,3.5-1.2,3.5-3.4c0-2.2-1.3-3.4-3.2-3.4
			c-1.2,0-1.8,0.2-3.1,1.1l-2.3-1.5l0.6-10.9h12.4v4.4h-7.9l-0.3,3.7c0.8-0.3,1.5-0.4,2.3-0.4c3.7,0,6.9,2.2,6.9,7
			c0,5-3.7,7.8-8,7.8C99.2,83.9,96.8,82.5,95,80.8z"/>
		<path class="st4" d="M113.6,72.3c0-7.6,3.1-11.3,7.8-11.3c4.7,0,7.8,3.8,7.8,11.3c0,7.6-3.2,11.6-7.8,11.6
			C116.7,83.9,113.6,79.9,113.6,72.3z M124.2,72.3c0-6-1.3-7.3-2.8-7.3c-1.6,0-2.8,1.2-2.8,7.3c0,6.1,1.2,7.5,2.8,7.5
			C123,79.8,124.2,78.3,124.2,72.3z"/>
		<path class="st4" d="M131.6,72.3c0-7.6,3.1-11.3,7.8-11.3c4.7,0,7.8,3.8,7.8,11.3c0,7.6-3.2,11.6-7.8,11.6
			C134.8,83.9,131.6,79.9,131.6,72.3z M142.3,72.3c0-6-1.3-7.3-2.8-7.3c-1.6,0-2.8,1.2-2.8,7.3c0,6.1,1.2,7.5,2.8,7.5
			C141,79.8,142.3,78.3,142.3,72.3z"/>
		<path class="st4" d="M162.8,82.4c0.5,0,0.6-0.4,0.7-2.9c0.6,0.4,1.7,0.9,2.4,1.1c-0.2,3.3-0.9,4.3-2.8,4.3h-1.9
			c-2.3,0-2.8-0.8-2.8-3.2v-5h-2.3c-0.3,3.7-1.1,6.6-5.5,8.4c-0.3-0.7-1-1.6-1.6-2.1c3.7-1.4,4.1-3.6,4.3-6.3h-3.8v-2.5h16.1v2.5
			H161v5c0,0.7,0.1,0.8,0.6,0.8H162.8z M163.8,71.9H151v-2.5h12.8V71.9z"/>
	</g>
	<g class="st1">
		<g>
			<path class="st5" d="M109.6,101.6c0.6,0.9,1.2,2.1,1.5,2.9l-2,0.9c-0.2-0.8-0.8-2-1.4-3c-0.5,1.4-1.3,2.8-2.1,3.7
				c-0.4-0.4-1.4-1-1.9-1.2c0.8-0.8,1.5-2.1,1.9-3.3h-0.8V89.9h5.7v11.7H109.6z M109.5,101.6h-3.7l2.2,0.5l-0.1,0.2L109.5,101.6z
				 M107,93.2h1.2v-1.3H107V93.2z M107,96.4h1.2v-1.3H107V96.4z M107,99.6h1.2v-1.3H107V99.6z M116.9,96.6v0.5h3.2v4.5h0.7v1.8h-0.7
				v0.6c0,1-0.2,1.6-0.8,1.9c-0.7,0.3-1.5,0.4-2.6,0.4c-0.1-0.6-0.4-1.5-0.6-2.1c0.6,0,1.3,0,1.5,0c0.2,0,0.3-0.1,0.3-0.3v-0.6h-4
				v2.9h-2.3v-2.9h-0.8v-1.8h0.8v-4.5h3.1v-0.5h-3.9v-1.8h2v-0.4h-1.4v-1.7h1.4v-0.4h-1.8v-1.8h1.8v-1.3h2.2v1.3h1.4v-1.3h2.3v1.3
				h1.8v1.8h-1.8v0.4h1.5v1.7h-1.5v0.4h2.1v1.8H116.9z M113.9,98.8v0.5h0.8v-0.5H113.9z M113.9,101.5h0.8v-0.6h-0.8V101.5z
				 M115.1,92.7h1.4v-0.4h-1.4V92.7z M115.1,94.8h1.4v-0.4h-1.4V94.8z M116.9,98.8v0.5h0.9v-0.5H116.9z M117.8,101.5v-0.6h-0.9v0.6
				H117.8z"/>
			<path class="st5" d="M138.7,91.9c0,0,0,0.8,0,1.1c-0.3,7.9-0.6,10.9-1.2,11.8c-0.4,0.7-0.9,0.9-1.5,1.1c-0.5,0.1-1.2,0.1-2,0.1
				c-0.1-0.7-0.3-1.8-0.7-2.5c0.6,0.1,1.1,0.1,1.5,0.1c0.2,0,0.4-0.1,0.6-0.4c0.4-0.5,0.6-2.4,0.8-7c-1,3.8-2.6,7.4-5.1,9.5
				c-0.5-0.5-1.4-1.1-2.1-1.5c2.8-2,4.5-5.9,5.4-9.9H134c-0.7,2.8-2.2,6-3.9,7.7c-0.5-0.5-1.3-1.1-2-1.4c1.7-1.3,3-3.8,3.8-6.2h-0.5
				c-0.5,1.2-1.1,2.2-1.8,3.1c-0.4-0.4-1.4-1.1-1.9-1.4c0.2-0.3,0.5-0.6,0.7-0.9h-1v2.4l1.4-0.4l0.3,2.3c-0.6,0.2-1.2,0.4-1.7,0.5
				v6.2h-2.4v-5.6c-0.9,0.3-1.7,0.5-2.5,0.7l-0.6-2.5c0.9-0.2,1.9-0.4,3.1-0.7V95H124c-0.2,0.8-0.4,1.5-0.6,2.1
				c-0.4-0.3-1.3-0.9-1.8-1.2c0.5-1.4,0.8-3.6,0.9-5.7l2.1,0.4c-0.1,0.6-0.1,1.3-0.2,2h0.5v-3.3h2.4v3.3h1.3v2
				c0.9-1.5,1.5-3.4,1.9-5.3l2.3,0.4c-0.2,0.7-0.4,1.5-0.6,2.2H138.7z"/>
			<path class="st5" d="M149.5,96.6v1.5h5.4v2.3h-2.2l1.4,0.5c-0.6,0.9-1.2,1.8-1.7,2.5h3.4v2.4h-15.6v-2.4h3.2
				c-0.3-0.8-0.8-1.8-1.3-2.5l1.1-0.4h-2v-2.3h5.4v-1.5h-3.5v-0.8c-0.6,0.3-1.3,0.6-2,0.8c-0.4-0.7-1.1-1.7-1.7-2.4
				c3.4-0.9,6.6-2.5,8.3-5.2l2.5,1.1c-0.2,0.2-0.3,0.5-0.5,0.7c1.7,1.4,4.5,2.7,7.2,3.4c-0.6,0.6-1.4,1.6-1.8,2.3
				c-0.7-0.2-1.5-0.5-2.2-0.9v1H149.5z M144.6,100.5c0.6,0.8,1.1,1.7,1.3,2.4l-1.3,0.6h2v-3H144.6z M150.5,94.3
				c-0.8-0.5-1.6-1.1-2.3-1.7c-0.7,0.6-1.4,1.2-2.2,1.7H150.5z M149.5,100.5v3h1.7l-1-0.4c0.4-0.7,1-1.7,1.3-2.6H149.5z"/>
		</g>
		<g>
			<g>
				<ellipse transform="matrix(0.8838 -0.4678 0.4678 0.8838 -35.0154 55.3949)" class="st6" cx="94" cy="98.2" rx="7.2" ry="7.8"/>
				
					<ellipse transform="matrix(0.9229 -0.3851 0.3851 0.9229 -30.3889 44.0475)" class="st7" cx="94.8" cy="97.9" rx="6.6" ry="7.8"/>
				
					<ellipse transform="matrix(0.9229 -0.3851 0.3851 0.9229 -30.3889 44.0475)" class="st8" cx="94.8" cy="97.9" rx="5.6" ry="6.6"/>
				<g>
					<path class="st9" d="M94.3,98.1c-0.2-0.1-0.3-0.1-0.5-0.2c-0.1-0.1-0.3-0.1-0.4-0.3c-0.1-0.1-0.2-0.2-0.3-0.4
						c-0.1-0.1-0.1-0.3-0.2-0.5c-0.1-0.4,0-0.8,0.2-1.1c0.2-0.3,0.5-0.5,0.9-0.6L94,94.5c0-0.2,0.1-0.4,0.3-0.4
						c0.2,0,0.4,0.1,0.4,0.3l0.1,0.5c0.4,0,0.7,0.1,1,0.3c0.2,0.2,0.2,0.3,0.1,0.6c-0.2,0.2-0.4,0.3-0.6,0.1
						c-0.2-0.1-0.4-0.1-0.6-0.1c-0.5,0.1-0.7,0.3-0.6,0.7c0,0.1,0.1,0.2,0.2,0.3c0.1,0.1,0.2,0.2,0.4,0.2c0.1,0.1,0.3,0.1,0.5,0.2
						c0.2,0.1,0.4,0.1,0.5,0.2c0.2,0.1,0.3,0.2,0.5,0.3c0.2,0.1,0.3,0.2,0.4,0.4c0.1,0.2,0.2,0.4,0.2,0.6c0.1,0.4,0,0.8-0.2,1.1
						c-0.2,0.3-0.5,0.5-0.9,0.7l0.1,0.5c0,0.2-0.1,0.4-0.3,0.4c-0.3,0-0.4-0.1-0.4-0.3l-0.1-0.5c-0.4,0-0.9-0.1-1.2-0.3
						c-0.2-0.1-0.3-0.3-0.2-0.6c0.1-0.3,0.4-0.4,0.7-0.2c0.3,0.1,0.6,0.2,0.9,0.1c0.5-0.1,0.7-0.3,0.7-0.8c0-0.1,0-0.1-0.1-0.2
						c0-0.1-0.1-0.1-0.1-0.2c-0.1-0.1-0.1-0.1-0.2-0.1c0,0-0.1-0.1-0.2-0.1c-0.1,0-0.2-0.1-0.2-0.1c0,0-0.1-0.1-0.3-0.1
						C94.5,98.1,94.4,98.1,94.3,98.1z"/>
				</g>
				<path class="st10" d="M93.6,90.3c0,0,5.6,6.9,2,15.3c1.5,0.2,6.9-1.6,5.8-8.5C101,94.3,98.2,90.1,93.6,90.3z"/>
			</g>
		</g>
		<g>
			<g>
				
					<ellipse transform="matrix(0.8838 -0.4678 0.4678 0.8838 -26.6153 89.2226)" class="st6" cx="166.3" cy="98.2" rx="7.2" ry="7.8"/>
				
					<ellipse transform="matrix(0.9229 -0.3851 0.3851 0.9229 -24.8117 71.8956)" class="st7" cx="167.1" cy="97.9" rx="6.6" ry="7.8"/>
				
					<ellipse transform="matrix(0.9229 -0.3851 0.3851 0.9229 -24.8117 71.8956)" class="st8" cx="167.1" cy="97.9" rx="5.6" ry="6.6"/>
				<g>
					<path class="st9" d="M166.6,98.1c-0.2-0.1-0.3-0.1-0.5-0.2c-0.1-0.1-0.3-0.1-0.4-0.3s-0.2-0.2-0.3-0.4
						c-0.1-0.1-0.1-0.3-0.2-0.5c-0.1-0.4,0-0.8,0.2-1.1c0.2-0.3,0.5-0.5,0.9-0.6l-0.1-0.5c0-0.2,0.1-0.4,0.3-0.4
						c0.2,0,0.4,0.1,0.4,0.3l0.1,0.5c0.4,0,0.7,0.1,1,0.3c0.2,0.2,0.2,0.3,0.1,0.6c-0.2,0.2-0.4,0.3-0.6,0.1
						c-0.2-0.1-0.4-0.1-0.6-0.1c-0.5,0.1-0.7,0.3-0.6,0.7c0,0.1,0.1,0.2,0.2,0.3c0.1,0.1,0.2,0.2,0.4,0.2c0.1,0.1,0.3,0.1,0.5,0.2
						c0.2,0.1,0.4,0.1,0.5,0.2c0.2,0.1,0.3,0.2,0.5,0.3c0.2,0.1,0.3,0.2,0.4,0.4c0.1,0.2,0.2,0.4,0.2,0.6c0.1,0.4,0,0.8-0.2,1.1
						c-0.2,0.3-0.5,0.5-0.9,0.7l0.1,0.5c0,0.2-0.1,0.4-0.3,0.4c-0.3,0-0.4-0.1-0.4-0.3l-0.1-0.5c-0.4,0-0.9-0.1-1.2-0.3
						c-0.2-0.1-0.3-0.3-0.2-0.6c0.1-0.3,0.4-0.4,0.7-0.2c0.3,0.1,0.6,0.2,0.9,0.1c0.5-0.1,0.7-0.3,0.7-0.8c0-0.1,0-0.1-0.1-0.2
						c0-0.1-0.1-0.1-0.1-0.2c-0.1-0.1-0.1-0.1-0.2-0.1c0,0-0.1-0.1-0.2-0.1c-0.1,0-0.2-0.1-0.2-0.1c0,0-0.1-0.1-0.3-0.1
						C166.8,98.1,166.7,98.1,166.6,98.1z"/>
				</g>
				<path class="st10" d="M165.9,90.3c0,0,5.6,6.9,2,15.3c1.5,0.2,6.9-1.6,5.8-8.5C173.3,94.3,170.5,90.1,165.9,90.3z"/>
			</g>
		</g>
	</g>
</g>
<g class="st0">
	<g class="st1">
		<g>
			<polygon class="st2" points="117.9,51.9 115.5,51.9 115.5,49.7 114.4,49.7 114.4,55.2 115.5,55.2 115.5,52.9 117.9,52.9 
				117.9,55.2 119,55.2 119,49.7 117.9,49.7 			"/>
			<path class="st2" d="M124.2,52.8c0,0.9-0.4,1.4-1.2,1.4c-0.8,0-1.2-0.5-1.2-1.4v-3.1h-1.1v3.1c0,1.5,0.9,2.4,2.3,2.4
				c1.5,0,2.4-0.9,2.4-2.5v-3.1h-1.1V52.8z"/>
			<polygon class="st2" points="136.9,53.5 135.7,49.7 134.8,49.7 133.5,53.5 132.3,49.7 131.2,49.7 133.1,55.2 134,55.2 
				135.2,51.6 136.5,55.2 137.4,55.2 139.3,49.7 138.1,49.7 			"/>
			<polygon class="st2" points="141.2,52.8 143.3,52.8 143.3,51.8 141.2,51.8 141.2,50.7 144.2,50.7 144.2,49.7 140.2,49.7 
				140.2,55.2 144.3,55.2 144.3,54.2 141.2,54.2 			"/>
			<rect x="145.6" y="49.7" class="st2" width="1.1" height="5.4"/>
			<path class="st2" d="M129.9,54l0.5,1.1h1.2l-2.4-5.4l0,0h-1l-2.4,5.4h1.1l0.5-1.1h0l0-0.1H129.9z M128.7,51.1l0.8,1.8h0l0.1,0.1
				h-1.7l0.1-0.1h0L128.7,51.1z"/>
		</g>
		<g>
			<path class="st3" d="M128.3,41.1c-0.1-0.2-0.2-0.4-0.3-0.7c-0.1-0.3-0.3-0.6-0.4-0.9c-0.8-1.7-1.7-3.3-2.6-4.8
				c-0.7-1.2-1.5-2.4-2.1-3.4l0,0c-2-3-3.5-4.8-3.5-4.8c0,0,0,0,0,0s0,0,0,0c-0.1,0.1-2.8,2.7-2.6,5.4c0.1,1.4,0.8,2.4,1.3,2.9
				c0.2,0.2,0.4,0.4,0.4,0.4c1.1,1,2.8,2.2,4.5,3.2l0,0c1.4,0.8,2.7,1.5,3.7,2.1c0.4,0.2,0.7,0.4,1,0.5c0.2,0.1,0.4,0.2,0.6,0.3
				c0,0,0.1,0,0.1,0C128.2,41.2,128.3,41.2,128.3,41.1L128.3,41.1z"/>
			<path class="st3" d="M127.3,43.3C127.3,43.2,127.2,43.2,127.3,43.3c-0.1-0.1-0.1-0.1-0.1-0.1v0l-0.2,0h-9.7v0.3l0,0c0,0,0,0,0,0
				c1.1,1.9,2.9,3.4,4.8,2.9c1.3-0.3,4.3-2.4,5.2-3.1l0,0C127.3,43.3,127.3,43.3,127.3,43.3z"/>
			<path class="st3" d="M127.4,42.2L127.4,42.2c-0.5-0.3-0.9-0.6-1.5-1c-0.4-0.3-0.9-0.5-1.3-0.8c-0.6-0.4-1.2-0.7-1.8-1.1h0
				c-2.4-1.4-4.8-2.7-6.4-3.6c-1.1-0.6-1.8-1-1.8-1c-0.8,2.4,0.3,4.3,0.3,4.3c0.4,0.9,1,1.6,1.6,2c0.1,0.1,0.1,0.1,0.2,0.2
				c0.7,0.6,1.3,0.8,1.3,0.8c1,0.4,1.9,0.4,1.9,0.4c0.1,0,5.9,0,7.5,0c0.1,0,0.1-0.1,0.1-0.1C127.5,42.3,127.4,42.2,127.4,42.2z"/>
			<path class="st3" d="M128.1,22.3c-0.4,0-1.6,0.3-1.6,0.3c-2.6,0.7-3.3,3.1-3.3,3.1c-0.1,0.3-0.2,0.6-0.2,0.9
				c-0.1,1.2,0.2,2.2,0.2,2.2c0.4,1.7,1.5,4,2.6,6c0.5,1,1.1,1.9,1.6,2.7c0.3,0.4,0.5,0.8,0.8,1.2c0.5,0.8,0.9,1.4,1.1,1.7
				c0.1,0.1,0.1,0,0.1,0c0.1,0,0.1-0.1,0.1-0.1l0,0c0.1-1.3,0.2-2.4,0.3-3.5c0.2-2.8,0.1-5.2,0-7.1C129.5,24,128.1,22.3,128.1,22.3z
				"/>
			<path class="st3" d="M133.8,43.2c0,0-0.1,0-0.1,0.1c0,0,0,0.1,0,0.1l0,0c1,0.7,3.8,2.7,5.2,3.1c0,0,2.6,0.9,4.8-2.9L133.8,43.2
				L133.8,43.2z"/>
			<path class="st3" d="M135.1,34.8c1.2-2,2.2-4.3,2.6-6c0,0,0.3-1.1,0.2-2.2c0-0.3-0.1-0.6-0.2-0.9c0,0-0.6-2.4-3.3-3.1
				c0,0-0.8-0.2-1.6-0.3c0,0-1.4,1.8-1.8,7.5c-0.1,1.9-0.2,4.2,0,7c0.1,1.1,0.2,2.3,0.3,3.6h0c0,0.1,0.1,0.1,0.1,0.1
				c0.1,0,0.1-0.1,0.1-0.1l0,0c0.2-0.3,0.6-0.9,1.1-1.7c0.2-0.4,0.5-0.8,0.8-1.2C134,36.6,134.5,35.7,135.1,34.8z"/>
			<path class="st3" d="M146.4,34.8c0,0-0.7,0.4-1.9,1c-1.6,0.9-4,2.2-6.3,3.6c-0.6,0.4-1.2,0.7-1.8,1.1c-0.5,0.3-0.9,0.5-1.3,0.8
				c-0.5,0.3-1,0.7-1.5,1l0,0c0,0-0.1,0.1-0.1,0.1c0,0,0,0.1,0.1,0.1v0c1.6,0,7.5,0,7.6,0c0,0,0.8,0,1.7-0.4c0,0,0.6-0.2,1.4-0.8
				c0.1,0,0.1-0.1,0.2-0.2c0.6-0.5,1.2-1.2,1.6-2.1C146.1,39,147.1,37,146.4,34.8z"/>
			<path class="st3" d="M138.2,38.3c1.7-1,3.5-2.2,4.5-3.2c0,0,0.2-0.1,0.4-0.4c0.5-0.5,1.2-1.5,1.3-2.9c0.2-2.8-2.6-5.3-2.6-5.3
				s-1.5,1.9-3.5,4.9c-0.7,1-1.4,2.1-2.1,3.3c-0.9,1.4-1.7,3-2.6,4.7c-0.2,0.3-0.3,0.6-0.5,1c-0.1,0.2-0.2,0.4-0.3,0.6h0
				c0,0,0,0.1,0,0.2c0,0,0.1,0.1,0.1,0v0c0.1-0.1,0.3-0.2,0.6-0.3c0.3-0.1,0.6-0.3,0.9-0.5C135.4,39.9,136.8,39.2,138.2,38.3z"/>
		</g>
	</g>
	<g class="st1">
		<path class="st11" d="M87.8,79.2h4.7V66.6h-4.1v-3.3c2.4-0.4,3.9-1,5.5-2h3.9v17.8h4v4.3H87.8V79.2z"/>
		<path class="st11" d="M104.7,72.3c0-7.6,3.1-11.3,7.8-11.3c4.7,0,7.8,3.8,7.8,11.3c0,7.6-3.2,11.6-7.8,11.6
			C107.9,83.9,104.7,79.9,104.7,72.3z M115.4,72.3c0-6-1.3-7.3-2.8-7.3c-1.6,0-2.8,1.2-2.8,7.3c0,6.1,1.2,7.5,2.8,7.5
			C114.1,79.8,115.4,78.3,115.4,72.3z"/>
		<path class="st11" d="M122.8,72.3c0-7.6,3.1-11.3,7.8-11.3c4.7,0,7.8,3.8,7.8,11.3c0,7.6-3.2,11.6-7.8,11.6
			C126,83.9,122.8,79.9,122.8,72.3z M133.5,72.3c0-6-1.3-7.3-2.8-7.3c-1.6,0-2.8,1.2-2.8,7.3c0,6.1,1.2,7.5,2.8,7.5
			C132.2,79.8,133.5,78.3,133.5,72.3z"/>
		<path class="st11" d="M140.9,72.3c0-7.6,3.1-11.3,7.8-11.3c4.7,0,7.8,3.8,7.8,11.3c0,7.6-3.2,11.6-7.8,11.6
			C144,83.9,140.9,79.9,140.9,72.3z M151.5,72.3c0-6-1.3-7.3-2.8-7.3c-1.6,0-2.8,1.2-2.8,7.3c0,6.1,1.2,7.5,2.8,7.5
			C150.3,79.8,151.5,78.3,151.5,72.3z"/>
		<path class="st11" d="M172,82.4c0.5,0,0.6-0.4,0.7-2.9c0.6,0.4,1.7,0.9,2.4,1.1c-0.2,3.3-0.9,4.3-2.8,4.3h-1.9
			c-2.3,0-2.8-0.8-2.8-3.2v-5h-2.3c-0.3,3.7-1.1,6.6-5.5,8.4c-0.3-0.7-1-1.6-1.6-2.1c3.7-1.4,4.1-3.6,4.3-6.3h-3.8v-2.5h16.1v2.5
			h-4.5v5c0,0.7,0.1,0.8,0.6,0.8H172z M173,71.9h-12.8v-2.5H173V71.9z"/>
	</g>
	<g class="st1">
		<g>
			<path class="st5" d="M109.8,101.6c0.6,0.9,1.2,2.1,1.5,2.9l-2,0.9c-0.2-0.8-0.8-2-1.4-3c-0.5,1.4-1.3,2.8-2.1,3.7
				c-0.4-0.4-1.4-1-1.9-1.2c0.8-0.8,1.5-2.1,1.9-3.3h-0.8V89.9h5.7v11.7H109.8z M109.7,101.6H106l2.2,0.5l-0.1,0.2L109.7,101.6z
				 M107.2,93.2h1.2v-1.3h-1.2V93.2z M107.2,96.4h1.2v-1.3h-1.2V96.4z M107.2,99.6h1.2v-1.3h-1.2V99.6z M117.1,96.6v0.5h3.2v4.5h0.7
				v1.8h-0.7v0.6c0,1-0.2,1.6-0.8,1.9c-0.7,0.3-1.5,0.4-2.6,0.4c-0.1-0.6-0.4-1.5-0.6-2.1c0.6,0,1.3,0,1.5,0c0.2,0,0.3-0.1,0.3-0.3
				v-0.6h-4v2.9h-2.3v-2.9H111v-1.8h0.8v-4.5h3.1v-0.5h-3.9v-1.8h2v-0.4h-1.4v-1.7h1.4v-0.4h-1.8v-1.8h1.8v-1.3h2.2v1.3h1.4v-1.3
				h2.3v1.3h1.8v1.8H119v0.4h1.5v1.7H119v0.4h2.1v1.8H117.1z M114.1,98.8v0.5h0.8v-0.5H114.1z M114.1,101.5h0.8v-0.6h-0.8V101.5z
				 M115.3,92.7h1.4v-0.4h-1.4V92.7z M115.3,94.8h1.4v-0.4h-1.4V94.8z M117.1,98.8v0.5h0.9v-0.5H117.1z M118,101.5v-0.6h-0.9v0.6
				H118z"/>
			<path class="st5" d="M138.9,91.9c0,0,0,0.8,0,1.1c-0.3,7.9-0.6,10.9-1.2,11.8c-0.4,0.7-0.9,0.9-1.5,1.1c-0.5,0.1-1.2,0.1-2,0.1
				c-0.1-0.7-0.3-1.8-0.7-2.5c0.6,0.1,1.1,0.1,1.5,0.1c0.2,0,0.4-0.1,0.6-0.4c0.4-0.5,0.6-2.4,0.8-7c-1,3.8-2.6,7.4-5.1,9.5
				c-0.5-0.5-1.4-1.1-2.1-1.5c2.8-2,4.5-5.9,5.4-9.9h-0.5c-0.7,2.8-2.2,6-3.9,7.7c-0.5-0.5-1.3-1.1-2-1.4c1.7-1.3,3-3.8,3.8-6.2
				h-0.5c-0.5,1.2-1.1,2.2-1.8,3.1c-0.4-0.4-1.4-1.1-1.9-1.4c0.2-0.3,0.5-0.6,0.7-0.9h-1v2.4l1.4-0.4l0.3,2.3
				c-0.6,0.2-1.2,0.4-1.7,0.5v6.3h-2.4v-5.6c-0.9,0.3-1.7,0.5-2.5,0.7l-0.6-2.5c0.9-0.2,1.9-0.4,3.1-0.7V95h-0.9
				c-0.2,0.8-0.4,1.5-0.6,2.1c-0.4-0.3-1.3-0.9-1.8-1.2c0.5-1.4,0.8-3.6,0.9-5.7l2.1,0.4c-0.1,0.6-0.1,1.3-0.2,2h0.5v-3.3h2.4v3.3
				h1.3v2c0.9-1.5,1.5-3.4,1.9-5.3l2.3,0.4c-0.2,0.7-0.4,1.5-0.6,2.2H138.9z"/>
			<path class="st5" d="M149.7,96.6v1.5h5.4v2.3h-2.2l1.4,0.5c-0.6,0.9-1.2,1.8-1.7,2.5h3.4v2.4h-15.6v-2.4h3.2
				c-0.3-0.8-0.8-1.8-1.3-2.5l1.1-0.4h-2v-2.3h5.4v-1.5h-3.5v-0.8c-0.6,0.3-1.3,0.6-2,0.8c-0.4-0.7-1.1-1.7-1.7-2.4
				c3.4-0.9,6.6-2.5,8.3-5.2l2.5,1.1c-0.2,0.2-0.3,0.5-0.5,0.7c1.7,1.4,4.5,2.7,7.2,3.4c-0.6,0.6-1.4,1.6-1.8,2.3
				c-0.7-0.2-1.5-0.5-2.2-0.9v1H149.7z M144.8,100.5c0.6,0.8,1.1,1.7,1.3,2.4l-1.3,0.6h2v-3H144.8z M150.7,94.3
				c-0.8-0.5-1.6-1.1-2.3-1.7c-0.7,0.6-1.4,1.2-2.2,1.7H150.7z M149.7,100.5v3h1.7l-1-0.4c0.4-0.7,1-1.7,1.3-2.6H149.7z"/>
		</g>
		<g>
			<g>
				
					<ellipse transform="matrix(0.8838 -0.4678 0.4678 0.8838 -34.993 55.4843)" class="st6" cx="94.2" cy="98.2" rx="7.2" ry="7.8"/>
				<ellipse transform="matrix(0.9229 -0.3851 0.3851 0.9229 -30.374 44.1212)" class="st7" cx="95" cy="97.9" rx="6.6" ry="7.8"/>
				<ellipse transform="matrix(0.9229 -0.3851 0.3851 0.9229 -30.374 44.1212)" class="st8" cx="95" cy="97.9" rx="5.6" ry="6.6"/>
				<g>
					<path class="st9" d="M94.5,98.1c-0.2-0.1-0.3-0.1-0.5-0.2c-0.1-0.1-0.3-0.1-0.4-0.3c-0.1-0.1-0.2-0.2-0.3-0.4
						c-0.1-0.1-0.1-0.3-0.2-0.5c-0.1-0.4,0-0.8,0.2-1.1c0.2-0.3,0.5-0.5,0.9-0.6l-0.1-0.5c0-0.2,0.1-0.4,0.3-0.4
						c0.2,0,0.4,0.1,0.4,0.3l0.1,0.5c0.4,0,0.7,0.1,1,0.3c0.2,0.2,0.2,0.3,0.1,0.6c-0.2,0.2-0.4,0.3-0.6,0.1
						c-0.2-0.1-0.4-0.1-0.6-0.1c-0.5,0.1-0.7,0.3-0.6,0.7c0,0.1,0.1,0.2,0.2,0.3c0.1,0.1,0.2,0.2,0.4,0.2c0.1,0.1,0.3,0.1,0.5,0.2
						c0.2,0.1,0.4,0.1,0.5,0.2c0.2,0.1,0.3,0.2,0.5,0.3c0.2,0.1,0.3,0.2,0.4,0.4c0.1,0.2,0.2,0.4,0.2,0.6c0.1,0.4,0,0.8-0.2,1.1
						c-0.2,0.3-0.5,0.5-0.9,0.7l0.1,0.5c0,0.2-0.1,0.4-0.3,0.4c-0.3,0-0.4-0.1-0.4-0.3l-0.1-0.5c-0.4,0-0.9-0.1-1.2-0.3
						c-0.2-0.1-0.3-0.3-0.2-0.6c0.1-0.3,0.4-0.4,0.7-0.2c0.3,0.1,0.6,0.2,0.9,0.1c0.5-0.1,0.7-0.3,0.7-0.8c0-0.1,0-0.1-0.1-0.2
						c0-0.1-0.1-0.1-0.1-0.2c-0.1-0.1-0.1-0.1-0.2-0.1c0,0-0.1-0.1-0.2-0.1c-0.1,0-0.2-0.1-0.2-0.1c0,0-0.1-0.1-0.3-0.1
						C94.6,98.1,94.6,98.1,94.5,98.1z"/>
				</g>
				<path class="st10" d="M93.8,90.3c0,0,5.6,6.9,2,15.3c1.5,0.2,6.9-1.6,5.8-8.5C101.2,94.3,98.4,90.1,93.8,90.3z"/>
			</g>
		</g>
		<g>
			<g>
				
					<ellipse transform="matrix(0.8838 -0.4678 0.4678 0.8838 -26.5928 89.3121)" class="st6" cx="166.5" cy="98.2" rx="7.2" ry="7.8"/>
				
					<ellipse transform="matrix(0.9229 -0.3851 0.3851 0.9229 -24.7967 71.9693)" class="st7" cx="167.3" cy="97.9" rx="6.6" ry="7.8"/>
				
					<ellipse transform="matrix(0.9229 -0.3851 0.3851 0.9229 -24.7967 71.9693)" class="st8" cx="167.3" cy="97.9" rx="5.6" ry="6.6"/>
				<g>
					<path class="st9" d="M166.8,98.1c-0.2-0.1-0.3-0.1-0.5-0.2c-0.1-0.1-0.3-0.1-0.4-0.3c-0.1-0.1-0.2-0.2-0.3-0.4
						c-0.1-0.1-0.1-0.3-0.2-0.5c-0.1-0.4,0-0.8,0.2-1.1c0.2-0.3,0.5-0.5,0.9-0.6l-0.1-0.5c0-0.2,0.1-0.4,0.3-0.4
						c0.2,0,0.4,0.1,0.4,0.3l0.1,0.5c0.4,0,0.7,0.1,1,0.3c0.2,0.2,0.2,0.3,0.1,0.6c-0.2,0.2-0.4,0.3-0.6,0.1
						c-0.2-0.1-0.4-0.1-0.6-0.1c-0.5,0.1-0.7,0.3-0.6,0.7c0,0.1,0.1,0.2,0.2,0.3c0.1,0.1,0.2,0.2,0.4,0.2c0.1,0.1,0.3,0.1,0.5,0.2
						c0.2,0.1,0.4,0.1,0.5,0.2c0.2,0.1,0.3,0.2,0.5,0.3c0.2,0.1,0.3,0.2,0.4,0.4c0.1,0.2,0.2,0.4,0.2,0.6c0.1,0.4,0,0.8-0.2,1.1
						c-0.2,0.3-0.5,0.5-0.9,0.7l0.1,0.5c0,0.2-0.1,0.4-0.3,0.4c-0.3,0-0.4-0.1-0.4-0.3l-0.1-0.5c-0.4,0-0.9-0.1-1.2-0.3
						c-0.2-0.1-0.3-0.3-0.2-0.6c0.1-0.3,0.4-0.4,0.7-0.2c0.3,0.1,0.6,0.2,0.9,0.1c0.5-0.1,0.7-0.3,0.7-0.8c0-0.1,0-0.1-0.1-0.2
						c0-0.1-0.1-0.1-0.1-0.2c-0.1-0.1-0.1-0.1-0.2-0.1c0,0-0.1-0.1-0.2-0.1c-0.1,0-0.2-0.1-0.2-0.1c0,0-0.1-0.1-0.3-0.1
						C167,98.1,166.9,98.1,166.8,98.1z"/>
				</g>
				<path class="st10" d="M166.1,90.3c0,0,5.6,6.9,2,15.3c1.5,0.2,6.9-1.6,5.8-8.5C173.5,94.3,170.7,90.1,166.1,90.3z"/>
			</g>
		</g>
	</g>
</g>
<g>
	<rect x="-1.1" y="0.2" class="st12" width="346.8" height="197.5"/>
	<rect x="15.8" y="12" class="st13" width="314.3" height="178.1"/>
	<text transform="matrix(1 0 0 1 15.8353 22.584)"><tspan x="0" y="0" class="st14 st15 st16">購物金使用說明</tspan><tspan x="0" y="18" class="st14 st17 st16">•本券為贈品，逾期、影印、塗改無效，遺失恕不補發。</tspan><tspan x="0" y="36" class="st14 st17 st16">•本券僅限用於華為品牌店(台北三創/台中文心秀泰/高雄夢</tspan><tspan x="0" y="54" class="st14 st17 st16">    時代)和燦坤門市(基旗/新竹/彰化/永華二/屏東)消費使用</tspan><tspan x="0" y="72" class="st14 st17 st16">，</tspan><tspan x="0" y="90" class="st14 st17 st16">    其餘門市或線上賣場不適用。</tspan><tspan x="0" y="108" class="st14 st17 st16">•本券不得兌換現金、不找零。</tspan><tspan x="0" y="126" class="st14 st17 st16">•本券折抵金額不計入消費發票總金額。</tspan><tspan x="0" y="144" class="st14 st17 st16">•本券可與其它優惠、折扣、行銷活動合併或累計使用，但</tspan><tspan x="0" y="162" class="st14 st17 st16">購</tspan></text>
</g>
</svg>
