<?xml version="1.0" encoding="utf-8"?>
<!-- Generator: Adobe Illustrator 24.1.0, SVG Export Plug-In . SVG Version: 6.00 Build 0)  -->
<svg version="1.1" id="圖層_1" xmlns="http://www.w3.org/2000/svg" xmlns:xlink="http://www.w3.org/1999/xlink" x="0px" y="0px"
	 viewBox="0 0 102 102" style="enable-background:new 0 0 102 102;" xml:space="preserve">
<style type="text/css">
	.st0{display:none;}
	.st1{display:inline;}
	.st2{fill:#24272A;}
	.st3{fill:#CE0E2D;}
	.st4{fill:#F2A138;}
	.st5{font-family:'NotoSansCJKtc-Black-B5pc-H';}
	.st6{font-size:29.6722px;}
	.st7{font-size:17.8033px;}
	.st8{fill:#102E64;}
	.st9{fill:#FEC349;}
	.st10{fill:#FEE662;}
	.st11{fill:#F4B72F;}
	.st12{fill:#FBE79C;}
	.st13{opacity:0.21;fill:#FFFFFF;}
</style>
<g class="st0">
	<g class="st1">
		<g>
			<polygon class="st2" points="38.8,36.9 36.3,36.9 36.3,34.7 35.2,34.7 35.2,40.2 36.3,40.2 36.3,37.9 38.8,37.9 38.8,40.2 
				39.9,40.2 39.9,34.7 38.8,34.7 			"/>
			<path class="st2" d="M45,37.8c0,0.9-0.4,1.4-1.2,1.4c-0.8,0-1.2-0.5-1.2-1.4v-3.1h-1.1v3.1c0,1.5,0.9,2.4,2.3,2.4
				c1.5,0,2.4-0.9,2.4-2.5v-3.1H45V37.8z"/>
			<polygon class="st2" points="57.7,38.5 56.5,34.7 55.6,34.7 54.4,38.5 53.2,34.7 52,34.7 53.9,40.2 54.8,40.2 56,36.6 57.3,40.2 
				58.2,40.2 60.1,34.7 58.9,34.7 			"/>
			<polygon class="st2" points="62.1,37.8 64.1,37.8 64.1,36.8 62.1,36.8 62.1,35.7 65,35.7 65,34.7 61,34.7 61,40.2 65.1,40.2 
				65.1,39.2 62.1,39.2 			"/>
			<rect x="66.4" y="34.7" class="st2" width="1.1" height="5.4"/>
			<path class="st2" d="M50.7,39l0.5,1.1h1.2L50,34.7l0,0h-1l-2.4,5.4h1.1l0.5-1.1h0l0-0.1H50.7z M49.5,36.1l0.8,1.8h0l0.1,0.1h-1.7
				l0.1-0.1h0L49.5,36.1z"/>
		</g>
		<g>
			<path class="st3" d="M49.1,26.1c-0.1-0.2-0.2-0.4-0.3-0.7c-0.1-0.3-0.3-0.6-0.4-0.9c-0.8-1.7-1.7-3.3-2.6-4.8
				c-0.7-1.2-1.5-2.4-2.1-3.4l0,0c-2-3-3.5-4.8-3.5-4.8c0,0,0,0,0,0s0,0,0,0c-0.1,0.1-2.8,2.7-2.6,5.4c0.1,1.4,0.8,2.4,1.3,2.9
				c0.2,0.2,0.4,0.4,0.4,0.4c1.1,1,2.8,2.2,4.5,3.2l0,0c1.4,0.8,2.7,1.5,3.7,2.1c0.4,0.2,0.7,0.4,1,0.5c0.2,0.1,0.4,0.2,0.6,0.3
				c0,0,0.1,0,0.1,0C49,26.2,49.1,26.2,49.1,26.1L49.1,26.1z"/>
			<path class="st3" d="M48.1,28.3C48.1,28.2,48.1,28.2,48.1,28.3C48,28.2,48,28.2,48,28.2v0l-0.2,0h-9.7v0.3l0,0c0,0,0,0,0,0
				c1.1,1.9,2.9,3.4,4.8,2.9c1.3-0.3,4.3-2.4,5.2-3.1l0,0C48.1,28.3,48.1,28.3,48.1,28.3z"/>
			<path class="st3" d="M48.2,27.2L48.2,27.2c-0.5-0.3-0.9-0.6-1.5-1c-0.4-0.3-0.9-0.5-1.3-0.8c-0.6-0.4-1.2-0.7-1.8-1.1h0
				c-2.4-1.4-4.8-2.7-6.4-3.6c-1.1-0.6-1.8-1-1.8-1c-0.8,2.4,0.3,4.3,0.3,4.3c0.4,0.9,1,1.6,1.6,2c0.1,0.1,0.1,0.1,0.2,0.2
				c0.7,0.6,1.3,0.8,1.3,0.8c1,0.4,1.9,0.4,1.9,0.4c0.1,0,5.9,0,7.5,0c0.1,0,0.1-0.1,0.1-0.1C48.3,27.3,48.2,27.2,48.2,27.2z"/>
			<path class="st3" d="M48.9,7.3c-0.4,0-1.6,0.3-1.6,0.3c-2.6,0.7-3.3,3.1-3.3,3.1c-0.1,0.3-0.2,0.6-0.2,0.9
				c-0.1,1.2,0.2,2.2,0.2,2.2c0.4,1.7,1.5,4,2.6,6c0.5,1,1.1,1.9,1.6,2.7c0.3,0.4,0.5,0.8,0.8,1.2c0.5,0.8,0.9,1.4,1.1,1.7
				c0.1,0.1,0.1,0,0.1,0c0.1,0,0.1-0.1,0.1-0.1l0,0c0.1-1.3,0.2-2.4,0.3-3.5c0.2-2.8,0.1-5.2,0-7.1C50.3,9,48.9,7.3,48.9,7.3z"/>
			<path class="st3" d="M54.6,28.2c0,0-0.1,0-0.1,0.1c0,0,0,0.1,0,0.1l0,0c1,0.7,3.8,2.7,5.2,3.1c0,0,2.6,0.9,4.8-2.9L54.6,28.2
				L54.6,28.2z"/>
			<path class="st3" d="M55.9,19.8c1.2-2,2.2-4.3,2.6-6c0,0,0.3-1.1,0.2-2.2c0-0.3-0.1-0.6-0.2-0.9c0,0-0.6-2.4-3.3-3.1
				c0,0-0.8-0.2-1.6-0.3c0,0-1.4,1.8-1.8,7.5c-0.1,1.9-0.2,4.2,0,7c0.1,1.1,0.2,2.3,0.3,3.6h0c0,0.1,0.1,0.1,0.1,0.1
				c0.1,0,0.1-0.1,0.1-0.1l0,0c0.2-0.3,0.6-0.9,1.1-1.7c0.2-0.4,0.5-0.8,0.8-1.2C54.8,21.6,55.3,20.7,55.9,19.8z"/>
			<path class="st3" d="M67.2,19.8c0,0-0.7,0.4-1.9,1c-1.6,0.9-4,2.2-6.3,3.6c-0.6,0.4-1.2,0.7-1.8,1.1c-0.5,0.3-0.9,0.5-1.3,0.8
				c-0.5,0.3-1,0.7-1.5,1l0,0c0,0-0.1,0.1-0.1,0.1c0,0,0,0.1,0.1,0.1v0c1.6,0,7.5,0,7.6,0c0,0,0.8,0,1.7-0.4c0,0,0.6-0.2,1.4-0.8
				c0.1,0,0.1-0.1,0.2-0.2c0.6-0.5,1.2-1.2,1.6-2.1C67,24,67.9,22,67.2,19.8z"/>
			<path class="st3" d="M59,23.3c1.7-1,3.5-2.2,4.5-3.2c0,0,0.2-0.1,0.4-0.4c0.5-0.5,1.2-1.5,1.3-2.9c0.2-2.8-2.6-5.3-2.6-5.3
				S61,13.4,59,16.4c-0.7,1-1.4,2.1-2.1,3.3c-0.9,1.4-1.7,3-2.6,4.7c-0.2,0.3-0.3,0.6-0.5,1c-0.1,0.2-0.2,0.4-0.3,0.6h0
				c0,0,0,0.1,0,0.2c0,0,0.1,0.1,0.1,0v0c0.1-0.1,0.3-0.2,0.6-0.3c0.3-0.1,0.6-0.3,0.9-0.5C56.2,24.9,57.6,24.2,59,23.3z"/>
		</g>
	</g>
	<text transform="matrix(1 0 0 1 15.2917 68.4379)" class="st1"><tspan x="0" y="0" class="st4 st5 st6">500</tspan><tspan x="54.2" y="0" class="st4 st5 st7">元</tspan></text>
	<g class="st1">
		<text transform="matrix(1 0 0 1 24.5935 89.4433)" class="st8 st5 st7">購物金</text>
		<g>
			<g>
				<ellipse transform="matrix(0.8838 -0.4678 0.4678 0.8838 -37.1753 16.6967)" class="st9" cx="15" cy="83.2" rx="7.2" ry="7.8"/>
				
					<ellipse transform="matrix(0.9229 -0.3851 0.3851 0.9229 -30.7054 12.4675)" class="st10" cx="15.8" cy="82.9" rx="6.6" ry="7.8"/>
				
					<ellipse transform="matrix(0.9229 -0.3851 0.3851 0.9229 -30.7054 12.4675)" class="st11" cx="15.8" cy="82.9" rx="5.6" ry="6.6"/>
				<g>
					<path class="st12" d="M15.3,83.1c-0.2-0.1-0.3-0.1-0.5-0.2c-0.1-0.1-0.3-0.1-0.4-0.3s-0.2-0.2-0.3-0.4
						c-0.1-0.1-0.1-0.3-0.2-0.5c-0.1-0.4,0-0.8,0.2-1.1c0.2-0.3,0.5-0.5,0.9-0.6L15,79.5c0-0.2,0.1-0.4,0.3-0.4
						c0.2,0,0.4,0.1,0.4,0.3l0.1,0.5c0.4,0,0.7,0.1,1,0.3c0.2,0.2,0.2,0.3,0.1,0.6c-0.2,0.2-0.4,0.3-0.6,0.1
						c-0.2-0.1-0.4-0.1-0.6-0.1c-0.5,0.1-0.7,0.3-0.6,0.7c0,0.1,0.1,0.2,0.2,0.3c0.1,0.1,0.2,0.2,0.4,0.2c0.1,0.1,0.3,0.1,0.5,0.2
						c0.2,0.1,0.4,0.1,0.5,0.2c0.2,0.1,0.3,0.2,0.5,0.3c0.2,0.1,0.3,0.2,0.4,0.4c0.1,0.2,0.2,0.4,0.2,0.6c0.1,0.4,0,0.8-0.2,1.1
						c-0.2,0.3-0.5,0.5-0.9,0.7l0.1,0.5c0,0.2-0.1,0.4-0.3,0.4c-0.3,0-0.4-0.1-0.4-0.3l-0.1-0.5c-0.4,0-0.9-0.1-1.2-0.3
						c-0.2-0.1-0.3-0.3-0.2-0.6c0.1-0.3,0.4-0.4,0.7-0.2c0.3,0.1,0.6,0.2,0.9,0.1c0.5-0.1,0.7-0.3,0.7-0.8c0-0.1,0-0.1-0.1-0.2
						c0-0.1-0.1-0.1-0.1-0.2c-0.1-0.1-0.1-0.1-0.2-0.1c0,0-0.1-0.1-0.2-0.1c-0.1,0-0.2-0.1-0.2-0.1c0,0-0.1-0.1-0.3-0.1
						C15.5,83.1,15.4,83.1,15.3,83.1z"/>
				</g>
				<path class="st13" d="M14.6,75.3c0,0,5.6,6.9,2,15.3c1.5,0.2,6.9-1.6,5.8-8.5C22,79.3,19.2,75.1,14.6,75.3z"/>
			</g>
		</g>
		<g>
			<g>
				
					<ellipse transform="matrix(0.8838 -0.4678 0.4678 0.8838 -28.7752 50.5245)" class="st9" cx="87.3" cy="83.2" rx="7.2" ry="7.8"/>
				
					<ellipse transform="matrix(0.9229 -0.3851 0.3851 0.9229 -25.1281 40.3156)" class="st10" cx="88.1" cy="82.9" rx="6.6" ry="7.8"/>
				
					<ellipse transform="matrix(0.9229 -0.3851 0.3851 0.9229 -25.1281 40.3156)" class="st11" cx="88.1" cy="82.9" rx="5.6" ry="6.6"/>
				<g>
					<path class="st12" d="M87.6,83.1c-0.2-0.1-0.3-0.1-0.5-0.2c-0.1-0.1-0.3-0.1-0.4-0.3c-0.1-0.1-0.2-0.2-0.3-0.4
						c-0.1-0.1-0.1-0.3-0.2-0.5c-0.1-0.4,0-0.8,0.2-1.1c0.2-0.3,0.5-0.5,0.9-0.6l-0.1-0.5c0-0.2,0.1-0.4,0.3-0.4
						c0.2,0,0.4,0.1,0.4,0.3l0.1,0.5c0.4,0,0.7,0.1,1,0.3c0.2,0.2,0.2,0.3,0.1,0.6c-0.2,0.2-0.4,0.3-0.6,0.1
						c-0.2-0.1-0.4-0.1-0.6-0.1c-0.5,0.1-0.7,0.3-0.6,0.7c0,0.1,0.1,0.2,0.2,0.3c0.1,0.1,0.2,0.2,0.4,0.2c0.1,0.1,0.3,0.1,0.5,0.2
						c0.2,0.1,0.4,0.1,0.5,0.2c0.2,0.1,0.3,0.2,0.5,0.3c0.2,0.1,0.3,0.2,0.4,0.4c0.1,0.2,0.2,0.4,0.2,0.6c0.1,0.4,0,0.8-0.2,1.1
						c-0.2,0.3-0.5,0.5-0.9,0.7l0.1,0.5c0,0.2-0.1,0.4-0.3,0.4c-0.3,0-0.4-0.1-0.4-0.3l-0.1-0.5c-0.4,0-0.9-0.1-1.2-0.3
						c-0.2-0.1-0.3-0.3-0.2-0.6c0.1-0.3,0.4-0.4,0.7-0.2c0.3,0.1,0.6,0.2,0.9,0.1c0.5-0.1,0.7-0.3,0.7-0.8c0-0.1,0-0.1-0.1-0.2
						c0-0.1-0.1-0.1-0.1-0.2c-0.1-0.1-0.1-0.1-0.2-0.1c0,0-0.1-0.1-0.2-0.1c-0.1,0-0.2-0.1-0.2-0.1c0,0-0.1-0.1-0.3-0.1
						C87.8,83.1,87.7,83.1,87.6,83.1z"/>
				</g>
				<path class="st13" d="M86.9,75.3c0,0,5.6,6.9,2,15.3c1.5,0.2,6.9-1.6,5.8-8.5C94.3,79.3,91.5,75.1,86.9,75.3z"/>
			</g>
		</g>
	</g>
</g>
<g>
	<g>
		<g>
			<polygon class="st2" points="38.9,36.9 36.5,36.9 36.5,34.7 35.3,34.7 35.3,40.2 36.5,40.2 36.5,37.9 38.9,37.9 38.9,40.2 
				40,40.2 40,34.7 38.9,34.7 			"/>
			<path class="st2" d="M45.2,37.8c0,0.9-0.4,1.4-1.2,1.4c-0.8,0-1.2-0.5-1.2-1.4v-3.1h-1.1v3.1c0,1.5,0.9,2.4,2.3,2.4
				c1.5,0,2.4-0.9,2.4-2.5v-3.1h-1.1V37.8z"/>
			<polygon class="st2" points="57.9,38.5 56.7,34.7 55.8,34.7 54.5,38.5 53.3,34.7 52.2,34.7 54.1,40.2 55,40.2 56.2,36.6 
				57.5,40.2 58.4,40.2 60.3,34.7 59.1,34.7 			"/>
			<polygon class="st2" points="62.2,37.8 64.2,37.8 64.2,36.8 62.2,36.8 62.2,35.7 65.2,35.7 65.2,34.7 61.2,34.7 61.2,40.2 
				65.3,40.2 65.3,39.2 62.2,39.2 			"/>
			<rect x="66.6" y="34.7" class="st2" width="1.1" height="5.4"/>
			<path class="st2" d="M50.9,39l0.5,1.1h1.2l-2.4-5.4l0,0h-1l-2.4,5.4H48l0.5-1.1h0l0-0.1H50.9z M49.7,36.1l0.8,1.8h0l0.1,0.1h-1.7
				l0.1-0.1h0L49.7,36.1z"/>
		</g>
		<g>
			<path class="st3" d="M49.3,26.1c-0.1-0.2-0.2-0.4-0.3-0.7c-0.1-0.3-0.3-0.6-0.4-0.9c-0.8-1.7-1.7-3.3-2.6-4.8
				c-0.7-1.2-1.5-2.4-2.1-3.4l0,0c-2-3-3.5-4.8-3.5-4.8c0,0,0,0,0,0s0,0,0,0c-0.1,0.1-2.8,2.7-2.6,5.4c0.1,1.4,0.8,2.4,1.3,2.9
				c0.2,0.2,0.4,0.4,0.4,0.4c1.1,1,2.8,2.2,4.5,3.2l0,0c1.4,0.8,2.7,1.5,3.7,2.1c0.4,0.2,0.7,0.4,1,0.5c0.2,0.1,0.4,0.2,0.6,0.3
				c0,0,0.1,0,0.1,0C49.2,26.2,49.3,26.2,49.3,26.1L49.3,26.1z"/>
			<path class="st3" d="M48.3,28.3C48.3,28.2,48.2,28.2,48.3,28.3c-0.1-0.1-0.1-0.1-0.1-0.1v0l-0.2,0h-9.7v0.3l0,0c0,0,0,0,0,0
				c1.1,1.9,2.9,3.4,4.8,2.9c1.3-0.3,4.3-2.4,5.2-3.1l0,0C48.3,28.3,48.3,28.3,48.3,28.3z"/>
			<path class="st3" d="M48.4,27.2L48.4,27.2c-0.5-0.3-0.9-0.6-1.5-1c-0.4-0.3-0.9-0.5-1.3-0.8c-0.6-0.4-1.2-0.7-1.8-1.1h0
				c-2.4-1.4-4.8-2.7-6.4-3.6c-1.1-0.6-1.8-1-1.8-1c-0.8,2.4,0.3,4.3,0.3,4.3c0.4,0.9,1,1.6,1.6,2c0.1,0.1,0.1,0.1,0.2,0.2
				C38.4,26.8,39,27,39,27c1,0.4,1.9,0.4,1.9,0.4c0.1,0,5.9,0,7.5,0c0.1,0,0.1-0.1,0.1-0.1C48.5,27.3,48.4,27.2,48.4,27.2z"/>
			<path class="st3" d="M49.1,7.3c-0.4,0-1.6,0.3-1.6,0.3c-2.6,0.7-3.3,3.1-3.3,3.1c-0.1,0.3-0.2,0.6-0.2,0.9
				c-0.1,1.2,0.2,2.2,0.2,2.2c0.4,1.7,1.5,4,2.6,6c0.5,1,1.1,1.9,1.6,2.7c0.3,0.4,0.5,0.8,0.8,1.2c0.5,0.8,0.9,1.4,1.1,1.7
				c0.1,0.1,0.1,0,0.1,0c0.1,0,0.1-0.1,0.1-0.1l0,0c0.1-1.3,0.2-2.4,0.3-3.5c0.2-2.8,0.1-5.2,0-7.1C50.5,9,49.1,7.3,49.1,7.3z"/>
			<path class="st3" d="M54.8,28.2c0,0-0.1,0-0.1,0.1c0,0,0,0.1,0,0.1l0,0c1,0.7,3.8,2.7,5.2,3.1c0,0,2.6,0.9,4.8-2.9L54.8,28.2
				L54.8,28.2z"/>
			<path class="st3" d="M56.1,19.8c1.2-2,2.2-4.3,2.6-6c0,0,0.3-1.1,0.2-2.2c0-0.3-0.1-0.6-0.2-0.9c0,0-0.6-2.4-3.3-3.1
				c0,0-0.8-0.2-1.6-0.3c0,0-1.4,1.8-1.8,7.5c-0.1,1.9-0.2,4.2,0,7c0.1,1.1,0.2,2.3,0.3,3.6h0c0,0.1,0.1,0.1,0.1,0.1
				c0.1,0,0.1-0.1,0.1-0.1l0,0c0.2-0.3,0.6-0.9,1.1-1.7c0.2-0.4,0.5-0.8,0.8-1.2C55,21.6,55.5,20.7,56.1,19.8z"/>
			<path class="st3" d="M67.4,19.8c0,0-0.7,0.4-1.9,1c-1.6,0.9-4,2.2-6.3,3.6c-0.6,0.4-1.2,0.7-1.8,1.1c-0.5,0.3-0.9,0.5-1.3,0.8
				c-0.5,0.3-1,0.7-1.5,1l0,0c0,0-0.1,0.1-0.1,0.1c0,0,0,0.1,0.1,0.1v0c1.6,0,7.5,0,7.6,0c0,0,0.8,0,1.7-0.4c0,0,0.6-0.2,1.4-0.8
				c0.1,0,0.1-0.1,0.2-0.2c0.6-0.5,1.2-1.2,1.6-2.1C67.1,24,68.1,22,67.4,19.8z"/>
			<path class="st3" d="M59.2,23.3c1.7-1,3.5-2.2,4.5-3.2c0,0,0.2-0.1,0.4-0.4c0.5-0.5,1.2-1.5,1.3-2.9c0.2-2.8-2.6-5.3-2.6-5.3
				s-1.5,1.9-3.5,4.9c-0.7,1-1.4,2.1-2.1,3.3c-0.9,1.4-1.7,3-2.6,4.7c-0.2,0.3-0.3,0.6-0.5,1c-0.1,0.2-0.2,0.4-0.3,0.6h0
				c0,0,0,0.1,0,0.2c0,0,0.1,0.1,0.1,0v0c0.1-0.1,0.3-0.2,0.6-0.3c0.3-0.1,0.6-0.3,0.9-0.5C56.4,24.9,57.8,24.2,59.2,23.3z"/>
		</g>
	</g>
	<text transform="matrix(1 0 0 1 6.4478 68.4379)"><tspan x="0" y="0" class="st3 st5 st6">3000</tspan><tspan x="72.3" y="0" class="st3 st5 st7">元</tspan></text>
	<g>
		<text transform="matrix(1 0 0 1 24.7847 89.4433)" class="st8 st5 st7">購物金</text>
		<g>
			<g>
				
					<ellipse transform="matrix(0.8838 -0.4678 0.4678 0.8838 -37.1533 16.7854)" class="st9" cx="15.2" cy="83.2" rx="7.2" ry="7.8"/>
				
					<ellipse transform="matrix(0.9229 -0.3851 0.3851 0.9229 -30.6907 12.5406)" class="st10" cx="16" cy="82.9" rx="6.6" ry="7.8"/>
				
					<ellipse transform="matrix(0.9229 -0.3851 0.3851 0.9229 -30.6907 12.5406)" class="st11" cx="16" cy="82.9" rx="5.6" ry="6.6"/>
				<g>
					<path class="st12" d="M15.5,83.1c-0.2-0.1-0.3-0.1-0.5-0.2c-0.1-0.1-0.3-0.1-0.4-0.3c-0.1-0.1-0.2-0.2-0.3-0.4
						c-0.1-0.1-0.1-0.3-0.2-0.5c-0.1-0.4,0-0.8,0.2-1.1c0.2-0.3,0.5-0.5,0.9-0.6l-0.1-0.5c0-0.2,0.1-0.4,0.3-0.4
						c0.2,0,0.4,0.1,0.4,0.3l0.1,0.5c0.4,0,0.7,0.1,1,0.3c0.2,0.2,0.2,0.3,0.1,0.6c-0.2,0.2-0.4,0.3-0.6,0.1
						c-0.2-0.1-0.4-0.1-0.6-0.1c-0.5,0.1-0.7,0.3-0.6,0.7c0,0.1,0.1,0.2,0.2,0.3c0.1,0.1,0.2,0.2,0.4,0.2c0.1,0.1,0.3,0.1,0.5,0.2
						c0.2,0.1,0.4,0.1,0.5,0.2c0.2,0.1,0.3,0.2,0.5,0.3c0.2,0.1,0.3,0.2,0.4,0.4c0.1,0.2,0.2,0.4,0.2,0.6c0.1,0.4,0,0.8-0.2,1.1
						c-0.2,0.3-0.5,0.5-0.9,0.7l0.1,0.5c0,0.2-0.1,0.4-0.3,0.4c-0.3,0-0.4-0.1-0.4-0.3L16,85.7c-0.4,0-0.9-0.1-1.2-0.3
						c-0.2-0.1-0.3-0.3-0.2-0.6c0.1-0.3,0.4-0.4,0.7-0.2c0.3,0.1,0.6,0.2,0.9,0.1c0.5-0.1,0.7-0.3,0.7-0.8c0-0.1,0-0.1-0.1-0.2
						c0-0.1-0.1-0.1-0.1-0.2c-0.1-0.1-0.1-0.1-0.2-0.1c0,0-0.1-0.1-0.2-0.1c-0.1,0-0.2-0.1-0.2-0.1c0,0-0.1-0.1-0.3-0.1
						C15.6,83.1,15.6,83.1,15.5,83.1z"/>
				</g>
				<path class="st13" d="M14.8,75.3c0,0,5.6,6.9,2,15.3c1.5,0.2,6.9-1.6,5.8-8.5C22.2,79.3,19.4,75.1,14.8,75.3z"/>
			</g>
		</g>
		<g>
			<g>
				
					<ellipse transform="matrix(0.8838 -0.4678 0.4678 0.8838 -28.7532 50.6132)" class="st9" cx="87.5" cy="83.2" rx="7.2" ry="7.8"/>
				
					<ellipse transform="matrix(0.9229 -0.3851 0.3851 0.9229 -25.1135 40.3887)" class="st10" cx="88.3" cy="82.9" rx="6.6" ry="7.8"/>
				
					<ellipse transform="matrix(0.9229 -0.3851 0.3851 0.9229 -25.1135 40.3887)" class="st11" cx="88.3" cy="82.9" rx="5.6" ry="6.6"/>
				<g>
					<path class="st12" d="M87.8,83.1c-0.2-0.1-0.3-0.1-0.5-0.2c-0.1-0.1-0.3-0.1-0.4-0.3c-0.1-0.1-0.2-0.2-0.3-0.4
						c-0.1-0.1-0.1-0.3-0.2-0.5c-0.1-0.4,0-0.8,0.2-1.1c0.2-0.3,0.5-0.5,0.9-0.6l-0.1-0.5c0-0.2,0.1-0.4,0.3-0.4
						c0.2,0,0.4,0.1,0.4,0.3l0.1,0.5c0.4,0,0.7,0.1,1,0.3c0.2,0.2,0.2,0.3,0.1,0.6c-0.2,0.2-0.4,0.3-0.6,0.1
						c-0.2-0.1-0.4-0.1-0.6-0.1c-0.5,0.1-0.7,0.3-0.6,0.7c0,0.1,0.1,0.2,0.2,0.3c0.1,0.1,0.2,0.2,0.4,0.2c0.1,0.1,0.3,0.1,0.5,0.2
						c0.2,0.1,0.4,0.1,0.5,0.2c0.2,0.1,0.3,0.2,0.5,0.3c0.2,0.1,0.3,0.2,0.4,0.4c0.1,0.2,0.2,0.4,0.2,0.6c0.1,0.4,0,0.8-0.2,1.1
						c-0.2,0.3-0.5,0.5-0.9,0.7l0.1,0.5c0,0.2-0.1,0.4-0.3,0.4c-0.3,0-0.4-0.1-0.4-0.3l-0.1-0.5c-0.4,0-0.9-0.1-1.2-0.3
						c-0.2-0.1-0.3-0.3-0.2-0.6c0.1-0.3,0.4-0.4,0.7-0.2c0.3,0.1,0.6,0.2,0.9,0.1c0.5-0.1,0.7-0.3,0.7-0.8c0-0.1,0-0.1-0.1-0.2
						c0-0.1-0.1-0.1-0.1-0.2c-0.1-0.1-0.1-0.1-0.2-0.1c0,0-0.1-0.1-0.2-0.1c-0.1,0-0.2-0.1-0.2-0.1c0,0-0.1-0.1-0.3-0.1
						C88,83.1,87.9,83.1,87.8,83.1z"/>
				</g>
				<path class="st13" d="M87.1,75.3c0,0,5.6,6.9,2,15.3c1.5,0.2,6.9-1.6,5.8-8.5C94.5,79.3,91.7,75.1,87.1,75.3z"/>
			</g>
		</g>
	</g>
</g>
</svg>
