<?xml version="1.0" encoding="utf-8"?>
<!-- Generator: Adobe Illustrator 24.1.0, SVG Export Plug-In . SVG Version: 6.00 Build 0)  -->
<svg version="1.1" id="圖層_1" xmlns="http://www.w3.org/2000/svg" xmlns:xlink="http://www.w3.org/1999/xlink" x="0px" y="0px"
	 viewBox="0 0 102 102" style="enable-background:new 0 0 102 102;" xml:space="preserve">
<style type="text/css">
	.st0{display:none;}
	.st1{display:inline;}
	.st2{fill:#24272A;}
	.st3{fill:#CE0E2D;}
	.st4{fill:#F2A138;}
	.st5{fill:#102E64;}
	.st6{fill:#FEC349;}
	.st7{fill:#FEE662;}
	.st8{fill:#F4B72F;}
	.st9{fill:#FBE79C;}
	.st10{opacity:0.21;fill:#FFFFFF;}
	.st11{fill:#D33177;}
</style>
<g class="st0">
	<g class="st1">
		<g>
			<polygon class="st2" points="38.8,36.9 36.3,36.9 36.3,34.7 35.2,34.7 35.2,40.2 36.3,40.2 36.3,37.9 38.8,37.9 38.8,40.2 
				39.9,40.2 39.9,34.7 38.8,34.7 			"/>
			<path class="st2" d="M45,37.8c0,0.9-0.4,1.4-1.2,1.4c-0.8,0-1.2-0.5-1.2-1.4v-3.1h-1.1v3.1c0,1.5,0.9,2.4,2.3,2.4
				c1.5,0,2.4-0.9,2.4-2.5v-3.1H45V37.8z"/>
			<polygon class="st2" points="57.7,38.5 56.5,34.7 55.6,34.7 54.4,38.5 53.2,34.7 52,34.7 53.9,40.2 54.8,40.2 56,36.6 57.3,40.2 
				58.2,40.2 60.1,34.7 58.9,34.7 			"/>
			<polygon class="st2" points="62.1,37.8 64.1,37.8 64.1,36.8 62.1,36.8 62.1,35.7 65,35.7 65,34.7 61,34.7 61,40.2 65.1,40.2 
				65.1,39.2 62.1,39.2 			"/>
			<rect x="66.4" y="34.7" class="st2" width="1.1" height="5.4"/>
			<path class="st2" d="M50.7,39l0.5,1.1h1.2L50,34.7l0,0h-1l-2.4,5.4h1.1l0.5-1.1h0l0-0.1H50.7z M49.5,36.1l0.8,1.8h0l0.1,0.1h-1.7
				l0.1-0.1h0L49.5,36.1z"/>
		</g>
		<g>
			<path class="st3" d="M49.1,26.1c-0.1-0.2-0.2-0.4-0.3-0.7c-0.1-0.3-0.3-0.6-0.4-0.9c-0.8-1.7-1.7-3.3-2.6-4.8
				c-0.7-1.2-1.5-2.4-2.1-3.4l0,0c-2-3-3.5-4.8-3.5-4.8c0,0,0,0,0,0s0,0,0,0c-0.1,0.1-2.8,2.7-2.6,5.4c0.1,1.4,0.8,2.4,1.3,2.9
				c0.2,0.2,0.4,0.4,0.4,0.4c1.1,1,2.8,2.2,4.5,3.2l0,0c1.4,0.8,2.7,1.5,3.7,2.1c0.4,0.2,0.7,0.4,1,0.5c0.2,0.1,0.4,0.2,0.6,0.3
				c0,0,0.1,0,0.1,0C49,26.2,49.1,26.2,49.1,26.1L49.1,26.1z"/>
			<path class="st3" d="M48.1,28.3C48.1,28.2,48.1,28.2,48.1,28.3C48,28.2,48,28.2,48,28.2v0l-0.2,0h-9.7v0.3l0,0c0,0,0,0,0,0
				c1.1,1.9,2.9,3.4,4.8,2.9c1.3-0.3,4.3-2.4,5.2-3.1l0,0C48.1,28.3,48.1,28.3,48.1,28.3z"/>
			<path class="st3" d="M48.2,27.2L48.2,27.2c-0.5-0.3-0.9-0.6-1.5-1c-0.4-0.3-0.9-0.5-1.3-0.8c-0.6-0.4-1.2-0.7-1.8-1.1h0
				c-2.4-1.4-4.8-2.7-6.4-3.6c-1.1-0.6-1.8-1-1.8-1c-0.8,2.4,0.3,4.3,0.3,4.3c0.4,0.9,1,1.6,1.6,2c0.1,0.1,0.1,0.1,0.2,0.2
				c0.7,0.6,1.3,0.8,1.3,0.8c1,0.4,1.9,0.4,1.9,0.4c0.1,0,5.9,0,7.5,0c0.1,0,0.1-0.1,0.1-0.1C48.3,27.3,48.2,27.2,48.2,27.2z"/>
			<path class="st3" d="M48.9,7.3c-0.4,0-1.6,0.3-1.6,0.3c-2.6,0.7-3.3,3.1-3.3,3.1c-0.1,0.3-0.2,0.6-0.2,0.9
				c-0.1,1.2,0.2,2.2,0.2,2.2c0.4,1.7,1.5,4,2.6,6c0.5,1,1.1,1.9,1.6,2.7c0.3,0.4,0.5,0.8,0.8,1.2c0.5,0.8,0.9,1.4,1.1,1.7
				c0.1,0.1,0.1,0,0.1,0c0.1,0,0.1-0.1,0.1-0.1l0,0c0.1-1.3,0.2-2.4,0.3-3.5c0.2-2.8,0.1-5.2,0-7.1C50.3,9,48.9,7.3,48.9,7.3z"/>
			<path class="st3" d="M54.6,28.2c0,0-0.1,0-0.1,0.1c0,0,0,0.1,0,0.1l0,0c1,0.7,3.8,2.7,5.2,3.1c0,0,2.6,0.9,4.8-2.9L54.6,28.2
				L54.6,28.2z"/>
			<path class="st3" d="M55.9,19.8c1.2-2,2.2-4.3,2.6-6c0,0,0.3-1.1,0.2-2.2c0-0.3-0.1-0.6-0.2-0.9c0,0-0.6-2.4-3.3-3.1
				c0,0-0.8-0.2-1.6-0.3c0,0-1.4,1.8-1.8,7.5c-0.1,1.9-0.2,4.2,0,7c0.1,1.1,0.2,2.3,0.3,3.6h0c0,0.1,0.1,0.1,0.1,0.1
				c0.1,0,0.1-0.1,0.1-0.1l0,0c0.2-0.3,0.6-0.9,1.1-1.7c0.2-0.4,0.5-0.8,0.8-1.2C54.8,21.6,55.3,20.7,55.9,19.8z"/>
			<path class="st3" d="M67.2,19.8c0,0-0.7,0.4-1.9,1c-1.6,0.9-4,2.2-6.3,3.6c-0.6,0.4-1.2,0.7-1.8,1.1c-0.5,0.3-0.9,0.5-1.3,0.8
				c-0.5,0.3-1,0.7-1.5,1l0,0c0,0-0.1,0.1-0.1,0.1c0,0,0,0.1,0.1,0.1v0c1.6,0,7.5,0,7.6,0c0,0,0.8,0,1.7-0.4c0,0,0.6-0.2,1.4-0.8
				c0.1,0,0.1-0.1,0.2-0.2c0.6-0.5,1.2-1.2,1.6-2.1C67,24,67.9,22,67.2,19.8z"/>
			<path class="st3" d="M59,23.3c1.7-1,3.5-2.2,4.5-3.2c0,0,0.2-0.1,0.4-0.4c0.5-0.5,1.2-1.5,1.3-2.9c0.2-2.8-2.6-5.3-2.6-5.3
				S61,13.4,59,16.4c-0.7,1-1.4,2.1-2.1,3.3c-0.9,1.4-1.7,3-2.6,4.7c-0.2,0.3-0.3,0.6-0.5,1c-0.1,0.2-0.2,0.4-0.3,0.6h0
				c0,0,0,0.1,0,0.2c0,0,0.1,0.1,0.1,0v0c0.1-0.1,0.3-0.2,0.6-0.3c0.3-0.1,0.6-0.3,0.9-0.5C56.2,24.9,57.6,24.2,59,23.3z"/>
		</g>
	</g>
	<g class="st1">
		<path class="st4" d="M16,65.8l2.4-3.3c1.2,1.2,2.8,2.1,4.5,2.1c2.1,0,3.5-1.2,3.5-3.4c0-2.2-1.3-3.4-3.2-3.4
			c-1.2,0-1.8,0.2-3.1,1.1l-2.3-1.5l0.6-10.9h12.4v4.4h-7.9l-0.3,3.7c0.8-0.3,1.5-0.4,2.3-0.4c3.7,0,6.9,2.2,6.9,7
			c0,5-3.7,7.8-8,7.8C20.2,68.9,17.8,67.5,16,65.8z"/>
		<path class="st4" d="M34.6,57.3c0-7.6,3.1-11.3,7.8-11.3c4.7,0,7.8,3.8,7.8,11.3c0,7.6-3.2,11.6-7.8,11.6
			C37.7,68.9,34.6,64.9,34.6,57.3z M45.2,57.3c0-6-1.3-7.3-2.8-7.3c-1.6,0-2.8,1.2-2.8,7.3c0,6.1,1.2,7.5,2.8,7.5
			C44,64.8,45.2,63.3,45.2,57.3z"/>
		<path class="st4" d="M52.6,57.3c0-7.6,3.1-11.3,7.8-11.3c4.7,0,7.8,3.8,7.8,11.3c0,7.6-3.2,11.6-7.8,11.6
			C55.8,68.9,52.6,64.9,52.6,57.3z M63.3,57.3c0-6-1.3-7.3-2.8-7.3c-1.6,0-2.8,1.2-2.8,7.3c0,6.1,1.2,7.5,2.8,7.5
			C62,64.8,63.3,63.3,63.3,57.3z"/>
		<path class="st4" d="M83.8,67.4c0.5,0,0.6-0.4,0.7-2.9c0.6,0.4,1.7,0.9,2.4,1.1c-0.2,3.3-0.9,4.3-2.8,4.3h-1.9
			c-2.3,0-2.8-0.8-2.8-3.2v-5h-2.3c-0.3,3.7-1.1,6.6-5.5,8.4c-0.3-0.7-1-1.6-1.6-2.1c3.7-1.4,4.1-3.6,4.3-6.3h-3.8v-2.5h16.1v2.5H82
			v5c0,0.7,0.1,0.8,0.6,0.8H83.8z M84.8,56.9H72v-2.5h12.8V56.9z"/>
	</g>
	<g class="st1">
		<g>
			<path class="st5" d="M30.6,86.6c0.6,0.9,1.2,2.1,1.5,2.9l-2,0.9c-0.2-0.8-0.8-2-1.4-3c-0.5,1.4-1.3,2.8-2.1,3.7
				c-0.4-0.4-1.4-1-1.9-1.2c0.8-0.8,1.5-2.1,1.9-3.3h-0.8V74.9h5.7v11.7H30.6z M30.5,86.6h-3.7l2.2,0.5l-0.1,0.2L30.5,86.6z
				 M28,78.2h1.2v-1.3H28V78.2z M28,81.4h1.2v-1.3H28V81.4z M28,84.6h1.2v-1.3H28V84.6z M37.9,81.6v0.5h3.2v4.5h0.7v1.8h-0.7v0.6
				c0,1-0.2,1.6-0.8,1.9c-0.7,0.3-1.5,0.4-2.6,0.4c-0.1-0.6-0.4-1.5-0.6-2.1c0.6,0,1.3,0,1.5,0c0.2,0,0.3-0.1,0.3-0.3v-0.6h-4v2.9
				h-2.3v-2.9h-0.8v-1.8h0.8v-4.5h3.1v-0.5h-3.9v-1.8h2v-0.4h-1.4v-1.7h1.4v-0.4h-1.8v-1.8h1.8v-1.3h2.2v1.3h1.4v-1.3h2.3v1.3h1.8
				v1.8h-1.8v0.4h1.5v1.7h-1.5v0.4h2.1v1.8H37.9z M34.9,83.8v0.5h0.8v-0.5H34.9z M34.9,86.5h0.8v-0.6h-0.8V86.5z M36.1,77.7h1.4
				v-0.4h-1.4V77.7z M36.1,79.8h1.4v-0.4h-1.4V79.8z M37.9,83.8v0.5h0.9v-0.5H37.9z M38.8,86.5v-0.6h-0.9v0.6H38.8z"/>
			<path class="st5" d="M59.7,76.9c0,0,0,0.8,0,1.1c-0.3,7.9-0.6,10.9-1.2,11.8c-0.4,0.7-0.9,0.9-1.5,1.1C56.5,91,55.7,91,55,91
				c-0.1-0.7-0.3-1.8-0.7-2.5c0.6,0.1,1.1,0.1,1.5,0.1c0.2,0,0.4-0.1,0.6-0.4c0.4-0.5,0.6-2.4,0.8-7c-1,3.8-2.6,7.4-5.1,9.5
				c-0.5-0.5-1.4-1.1-2.1-1.5c2.8-2,4.5-5.9,5.4-9.9H55c-0.7,2.8-2.2,6-3.9,7.7c-0.5-0.5-1.3-1.1-2-1.4c1.7-1.3,3-3.8,3.8-6.2h-0.5
				c-0.5,1.2-1.1,2.2-1.8,3.1c-0.4-0.4-1.4-1.1-1.9-1.4c0.2-0.3,0.5-0.6,0.7-0.9h-1v2.4l1.4-0.4l0.3,2.3c-0.6,0.2-1.2,0.4-1.7,0.5
				v6.2h-2.4v-5.6c-0.9,0.3-1.7,0.5-2.5,0.7l-0.6-2.5c0.9-0.2,1.9-0.4,3.1-0.7V80H45c-0.2,0.8-0.4,1.5-0.6,2.1
				c-0.4-0.3-1.3-0.9-1.8-1.2c0.5-1.4,0.8-3.6,0.9-5.7l2.1,0.4c-0.1,0.6-0.1,1.3-0.2,2h0.5v-3.3h2.4v3.3h1.3v2
				c0.9-1.5,1.5-3.4,1.9-5.3l2.3,0.4c-0.2,0.7-0.4,1.5-0.6,2.2H59.7z"/>
			<path class="st5" d="M70.5,81.6v1.5h5.4v2.3h-2.2l1.4,0.5c-0.6,0.9-1.2,1.8-1.7,2.5h3.4v2.4H61.3v-2.4h3.2
				c-0.3-0.8-0.8-1.8-1.3-2.5l1.1-0.4h-2v-2.3h5.4v-1.5h-3.5v-0.8c-0.6,0.3-1.3,0.6-2,0.8c-0.4-0.7-1.1-1.7-1.7-2.4
				c3.4-0.9,6.6-2.5,8.3-5.2l2.5,1.1c-0.2,0.2-0.3,0.5-0.5,0.7c1.7,1.4,4.5,2.7,7.2,3.4c-0.6,0.6-1.4,1.6-1.8,2.3
				c-0.7-0.2-1.5-0.5-2.2-0.9v1H70.5z M65.6,85.5c0.6,0.8,1.1,1.7,1.3,2.4l-1.3,0.6h2v-3H65.6z M71.5,79.3c-0.8-0.5-1.6-1.1-2.3-1.7
				c-0.7,0.6-1.4,1.2-2.2,1.7H71.5z M70.5,85.5v3h1.7l-1-0.4c0.4-0.7,1-1.7,1.3-2.6H70.5z"/>
		</g>
		<g>
			<g>
				<ellipse transform="matrix(0.8838 -0.4678 0.4678 0.8838 -37.1753 16.6967)" class="st6" cx="15" cy="83.2" rx="7.2" ry="7.8"/>
				
					<ellipse transform="matrix(0.9229 -0.3851 0.3851 0.9229 -30.7054 12.4675)" class="st7" cx="15.8" cy="82.9" rx="6.6" ry="7.8"/>
				
					<ellipse transform="matrix(0.9229 -0.3851 0.3851 0.9229 -30.7054 12.4675)" class="st8" cx="15.8" cy="82.9" rx="5.6" ry="6.6"/>
				<g>
					<path class="st9" d="M15.3,83.1c-0.2-0.1-0.3-0.1-0.5-0.2c-0.1-0.1-0.3-0.1-0.4-0.3s-0.2-0.2-0.3-0.4c-0.1-0.1-0.1-0.3-0.2-0.5
						c-0.1-0.4,0-0.8,0.2-1.1c0.2-0.3,0.5-0.5,0.9-0.6L15,79.5c0-0.2,0.1-0.4,0.3-0.4c0.2,0,0.4,0.1,0.4,0.3l0.1,0.5
						c0.4,0,0.7,0.1,1,0.3c0.2,0.2,0.2,0.3,0.1,0.6c-0.2,0.2-0.4,0.3-0.6,0.1c-0.2-0.1-0.4-0.1-0.6-0.1c-0.5,0.1-0.7,0.3-0.6,0.7
						c0,0.1,0.1,0.2,0.2,0.3c0.1,0.1,0.2,0.2,0.4,0.2c0.1,0.1,0.3,0.1,0.5,0.2c0.2,0.1,0.4,0.1,0.5,0.2c0.2,0.1,0.3,0.2,0.5,0.3
						c0.2,0.1,0.3,0.2,0.4,0.4c0.1,0.2,0.2,0.4,0.2,0.6c0.1,0.4,0,0.8-0.2,1.1c-0.2,0.3-0.5,0.5-0.9,0.7l0.1,0.5
						c0,0.2-0.1,0.4-0.3,0.4c-0.3,0-0.4-0.1-0.4-0.3l-0.1-0.5c-0.4,0-0.9-0.1-1.2-0.3c-0.2-0.1-0.3-0.3-0.2-0.6
						c0.1-0.3,0.4-0.4,0.7-0.2c0.3,0.1,0.6,0.2,0.9,0.1c0.5-0.1,0.7-0.3,0.7-0.8c0-0.1,0-0.1-0.1-0.2c0-0.1-0.1-0.1-0.1-0.2
						c-0.1-0.1-0.1-0.1-0.2-0.1c0,0-0.1-0.1-0.2-0.1c-0.1,0-0.2-0.1-0.2-0.1c0,0-0.1-0.1-0.3-0.1C15.5,83.1,15.4,83.1,15.3,83.1z"/>
				</g>
				<path class="st10" d="M14.6,75.3c0,0,5.6,6.9,2,15.3c1.5,0.2,6.9-1.6,5.8-8.5C22,79.3,19.2,75.1,14.6,75.3z"/>
			</g>
		</g>
		<g>
			<g>
				
					<ellipse transform="matrix(0.8838 -0.4678 0.4678 0.8838 -28.7752 50.5245)" class="st6" cx="87.3" cy="83.2" rx="7.2" ry="7.8"/>
				
					<ellipse transform="matrix(0.9229 -0.3851 0.3851 0.9229 -25.1281 40.3156)" class="st7" cx="88.1" cy="82.9" rx="6.6" ry="7.8"/>
				
					<ellipse transform="matrix(0.9229 -0.3851 0.3851 0.9229 -25.1281 40.3156)" class="st8" cx="88.1" cy="82.9" rx="5.6" ry="6.6"/>
				<g>
					<path class="st9" d="M87.6,83.1c-0.2-0.1-0.3-0.1-0.5-0.2c-0.1-0.1-0.3-0.1-0.4-0.3c-0.1-0.1-0.2-0.2-0.3-0.4
						c-0.1-0.1-0.1-0.3-0.2-0.5c-0.1-0.4,0-0.8,0.2-1.1c0.2-0.3,0.5-0.5,0.9-0.6l-0.1-0.5c0-0.2,0.1-0.4,0.3-0.4
						c0.2,0,0.4,0.1,0.4,0.3l0.1,0.5c0.4,0,0.7,0.1,1,0.3c0.2,0.2,0.2,0.3,0.1,0.6c-0.2,0.2-0.4,0.3-0.6,0.1
						c-0.2-0.1-0.4-0.1-0.6-0.1c-0.5,0.1-0.7,0.3-0.6,0.7c0,0.1,0.1,0.2,0.2,0.3c0.1,0.1,0.2,0.2,0.4,0.2c0.1,0.1,0.3,0.1,0.5,0.2
						c0.2,0.1,0.4,0.1,0.5,0.2c0.2,0.1,0.3,0.2,0.5,0.3c0.2,0.1,0.3,0.2,0.4,0.4c0.1,0.2,0.2,0.4,0.2,0.6c0.1,0.4,0,0.8-0.2,1.1
						c-0.2,0.3-0.5,0.5-0.9,0.7l0.1,0.5c0,0.2-0.1,0.4-0.3,0.4c-0.3,0-0.4-0.1-0.4-0.3l-0.1-0.5c-0.4,0-0.9-0.1-1.2-0.3
						c-0.2-0.1-0.3-0.3-0.2-0.6c0.1-0.3,0.4-0.4,0.7-0.2c0.3,0.1,0.6,0.2,0.9,0.1c0.5-0.1,0.7-0.3,0.7-0.8c0-0.1,0-0.1-0.1-0.2
						c0-0.1-0.1-0.1-0.1-0.2c-0.1-0.1-0.1-0.1-0.2-0.1c0,0-0.1-0.1-0.2-0.1c-0.1,0-0.2-0.1-0.2-0.1c0,0-0.1-0.1-0.3-0.1
						C87.8,83.1,87.7,83.1,87.6,83.1z"/>
				</g>
				<path class="st10" d="M86.9,75.3c0,0,5.6,6.9,2,15.3c1.5,0.2,6.9-1.6,5.8-8.5C94.3,79.3,91.5,75.1,86.9,75.3z"/>
			</g>
		</g>
	</g>
</g>
<g>
	<g>
		<g>
			<polygon class="st2" points="38.9,36.9 36.5,36.9 36.5,34.7 35.3,34.7 35.3,40.2 36.5,40.2 36.5,37.9 38.9,37.9 38.9,40.2 
				40,40.2 40,34.7 38.9,34.7 			"/>
			<path class="st2" d="M45.2,37.8c0,0.9-0.4,1.4-1.2,1.4c-0.8,0-1.2-0.5-1.2-1.4v-3.1h-1.1v3.1c0,1.5,0.9,2.4,2.3,2.4
				c1.5,0,2.4-0.9,2.4-2.5v-3.1h-1.1V37.8z"/>
			<polygon class="st2" points="57.9,38.5 56.7,34.7 55.8,34.7 54.5,38.5 53.3,34.7 52.2,34.7 54.1,40.2 55,40.2 56.2,36.6 
				57.5,40.2 58.4,40.2 60.3,34.7 59.1,34.7 			"/>
			<polygon class="st2" points="62.2,37.8 64.2,37.8 64.2,36.8 62.2,36.8 62.2,35.7 65.2,35.7 65.2,34.7 61.2,34.7 61.2,40.2 
				65.3,40.2 65.3,39.2 62.2,39.2 			"/>
			<rect x="66.6" y="34.7" class="st2" width="1.1" height="5.4"/>
			<path class="st2" d="M50.9,39l0.5,1.1h1.2l-2.4-5.4l0,0h-1l-2.4,5.4H48l0.5-1.1h0l0-0.1H50.9z M49.7,36.1l0.8,1.8h0l0.1,0.1h-1.7
				l0.1-0.1h0L49.7,36.1z"/>
		</g>
		<g>
			<path class="st3" d="M49.3,26.1c-0.1-0.2-0.2-0.4-0.3-0.7c-0.1-0.3-0.3-0.6-0.4-0.9c-0.8-1.7-1.7-3.3-2.6-4.8
				c-0.7-1.2-1.5-2.4-2.1-3.4l0,0c-2-3-3.5-4.8-3.5-4.8c0,0,0,0,0,0s0,0,0,0c-0.1,0.1-2.8,2.7-2.6,5.4c0.1,1.4,0.8,2.4,1.3,2.9
				c0.2,0.2,0.4,0.4,0.4,0.4c1.1,1,2.8,2.2,4.5,3.2l0,0c1.4,0.8,2.7,1.5,3.7,2.1c0.4,0.2,0.7,0.4,1,0.5c0.2,0.1,0.4,0.2,0.6,0.3
				c0,0,0.1,0,0.1,0C49.2,26.2,49.3,26.2,49.3,26.1L49.3,26.1z"/>
			<path class="st3" d="M48.3,28.3C48.3,28.2,48.2,28.2,48.3,28.3c-0.1-0.1-0.1-0.1-0.1-0.1v0l-0.2,0h-9.7v0.3l0,0c0,0,0,0,0,0
				c1.1,1.9,2.9,3.4,4.8,2.9c1.3-0.3,4.3-2.4,5.2-3.1l0,0C48.3,28.3,48.3,28.3,48.3,28.3z"/>
			<path class="st3" d="M48.4,27.2L48.4,27.2c-0.5-0.3-0.9-0.6-1.5-1c-0.4-0.3-0.9-0.5-1.3-0.8c-0.6-0.4-1.2-0.7-1.8-1.1h0
				c-2.4-1.4-4.8-2.7-6.4-3.6c-1.1-0.6-1.8-1-1.8-1c-0.8,2.4,0.3,4.3,0.3,4.3c0.4,0.9,1,1.6,1.6,2c0.1,0.1,0.1,0.1,0.2,0.2
				C38.4,26.8,39,27,39,27c1,0.4,1.9,0.4,1.9,0.4c0.1,0,5.9,0,7.5,0c0.1,0,0.1-0.1,0.1-0.1C48.5,27.3,48.4,27.2,48.4,27.2z"/>
			<path class="st3" d="M49.1,7.3c-0.4,0-1.6,0.3-1.6,0.3c-2.6,0.7-3.3,3.1-3.3,3.1c-0.1,0.3-0.2,0.6-0.2,0.9
				c-0.1,1.2,0.2,2.2,0.2,2.2c0.4,1.7,1.5,4,2.6,6c0.5,1,1.1,1.9,1.6,2.7c0.3,0.4,0.5,0.8,0.8,1.2c0.5,0.8,0.9,1.4,1.1,1.7
				c0.1,0.1,0.1,0,0.1,0c0.1,0,0.1-0.1,0.1-0.1l0,0c0.1-1.3,0.2-2.4,0.3-3.5c0.2-2.8,0.1-5.2,0-7.1C50.5,9,49.1,7.3,49.1,7.3z"/>
			<path class="st3" d="M54.8,28.2c0,0-0.1,0-0.1,0.1c0,0,0,0.1,0,0.1l0,0c1,0.7,3.8,2.7,5.2,3.1c0,0,2.6,0.9,4.8-2.9L54.8,28.2
				L54.8,28.2z"/>
			<path class="st3" d="M56.1,19.8c1.2-2,2.2-4.3,2.6-6c0,0,0.3-1.1,0.2-2.2c0-0.3-0.1-0.6-0.2-0.9c0,0-0.6-2.4-3.3-3.1
				c0,0-0.8-0.2-1.6-0.3c0,0-1.4,1.8-1.8,7.5c-0.1,1.9-0.2,4.2,0,7c0.1,1.1,0.2,2.3,0.3,3.6h0c0,0.1,0.1,0.1,0.1,0.1
				c0.1,0,0.1-0.1,0.1-0.1l0,0c0.2-0.3,0.6-0.9,1.1-1.7c0.2-0.4,0.5-0.8,0.8-1.2C55,21.6,55.5,20.7,56.1,19.8z"/>
			<path class="st3" d="M67.4,19.8c0,0-0.7,0.4-1.9,1c-1.6,0.9-4,2.2-6.3,3.6c-0.6,0.4-1.2,0.7-1.8,1.1c-0.5,0.3-0.9,0.5-1.3,0.8
				c-0.5,0.3-1,0.7-1.5,1l0,0c0,0-0.1,0.1-0.1,0.1c0,0,0,0.1,0.1,0.1v0c1.6,0,7.5,0,7.6,0c0,0,0.8,0,1.7-0.4c0,0,0.6-0.2,1.4-0.8
				c0.1,0,0.1-0.1,0.2-0.2c0.6-0.5,1.2-1.2,1.6-2.1C67.1,24,68.1,22,67.4,19.8z"/>
			<path class="st3" d="M59.2,23.3c1.7-1,3.5-2.2,4.5-3.2c0,0,0.2-0.1,0.4-0.4c0.5-0.5,1.2-1.5,1.3-2.9c0.2-2.8-2.6-5.3-2.6-5.3
				s-1.5,1.9-3.5,4.9c-0.7,1-1.4,2.1-2.1,3.3c-0.9,1.4-1.7,3-2.6,4.7c-0.2,0.3-0.3,0.6-0.5,1c-0.1,0.2-0.2,0.4-0.3,0.6h0
				c0,0,0,0.1,0,0.2c0,0,0.1,0.1,0.1,0v0c0.1-0.1,0.3-0.2,0.6-0.3c0.3-0.1,0.6-0.3,0.9-0.5C56.4,24.9,57.8,24.2,59.2,23.3z"/>
		</g>
	</g>
	<g>
		<path class="st3" d="M7.2,65.8l2.4-3.3c1.3,1.3,2.9,2.1,4.6,2.1c2,0,3.4-0.9,3.4-2.5c0-1.9-1-3-5.6-3v-3.7c3.8,0,5-1.2,5-2.9
			c0-1.5-0.9-2.3-2.5-2.3c-1.5,0-2.6,0.7-3.9,1.8l-2.7-3.2c2-1.7,4.2-2.7,6.9-2.7c4.6,0,7.6,2.1,7.6,6.1c0,2.2-1.2,3.9-3.6,4.9V57
			c2.5,0.7,4.3,2.5,4.3,5.4c0,4.1-3.8,6.4-8.2,6.4C11.2,68.9,8.8,67.6,7.2,65.8z"/>
		<path class="st3" d="M25.7,57.3c0-7.6,3.1-11.3,7.8-11.3c4.7,0,7.8,3.8,7.8,11.3c0,7.6-3.2,11.6-7.8,11.6
			C28.9,68.9,25.7,64.9,25.7,57.3z M36.4,57.3c0-6-1.3-7.3-2.8-7.3c-1.6,0-2.8,1.2-2.8,7.3c0,6.1,1.2,7.5,2.8,7.5
			C35.1,64.8,36.4,63.3,36.4,57.3z"/>
		<path class="st3" d="M43.8,57.3c0-7.6,3.1-11.3,7.8-11.3c4.7,0,7.8,3.8,7.8,11.3c0,7.6-3.2,11.6-7.8,11.6
			C47,68.9,43.8,64.9,43.8,57.3z M54.5,57.3c0-6-1.3-7.3-2.8-7.3c-1.6,0-2.8,1.2-2.8,7.3c0,6.1,1.2,7.5,2.8,7.5
			C53.2,64.8,54.5,63.3,54.5,57.3z"/>
		<path class="st3" d="M61.9,57.3c0-7.6,3.1-11.3,7.8-11.3c4.7,0,7.8,3.8,7.8,11.3c0,7.6-3.2,11.6-7.8,11.6
			C65,68.9,61.9,64.9,61.9,57.3z M72.5,57.3c0-6-1.3-7.3-2.8-7.3c-1.6,0-2.8,1.2-2.8,7.3c0,6.1,1.2,7.5,2.8,7.5
			C71.3,64.8,72.5,63.3,72.5,57.3z"/>
		<path class="st3" d="M93,67.4c0.5,0,0.6-0.4,0.7-2.9c0.6,0.4,1.7,0.9,2.4,1.1c-0.2,3.3-0.9,4.3-2.8,4.3h-1.9
			c-2.3,0-2.8-0.8-2.8-3.2v-5h-2.3c-0.3,3.7-1.1,6.6-5.5,8.4c-0.3-0.7-1-1.6-1.6-2.1c3.7-1.4,4.1-3.6,4.3-6.3h-3.8v-2.5h16.1v2.5
			h-4.5v5c0,0.7,0.1,0.8,0.6,0.8H93z M94,56.9H81.3v-2.5H94V56.9z"/>
	</g>
	<g>
		<g>
			<path class="st5" d="M30.8,86.6c0.6,0.9,1.2,2.1,1.5,2.9l-2,0.9c-0.2-0.8-0.8-2-1.4-3c-0.5,1.4-1.3,2.8-2.1,3.7
				c-0.4-0.4-1.4-1-1.9-1.2c0.8-0.8,1.5-2.1,1.9-3.3h-0.8V74.9h5.7v11.7H30.8z M30.7,86.6H27l2.2,0.5l-0.1,0.2L30.7,86.6z
				 M28.2,78.2h1.2v-1.3h-1.2V78.2z M28.2,81.4h1.2v-1.3h-1.2V81.4z M28.2,84.6h1.2v-1.3h-1.2V84.6z M38.1,81.6v0.5h3.2v4.5h0.7v1.8
				h-0.7v0.6c0,1-0.2,1.6-0.8,1.9c-0.7,0.3-1.5,0.4-2.6,0.4c-0.1-0.6-0.4-1.5-0.6-2.1c0.6,0,1.3,0,1.5,0c0.2,0,0.3-0.1,0.3-0.3v-0.6
				h-4v2.9h-2.3v-2.9H32v-1.8h0.8v-4.5h3.1v-0.5h-3.9v-1.8h2v-0.4h-1.4v-1.7h1.4v-0.4h-1.8v-1.8h1.8v-1.3h2.2v1.3h1.4v-1.3H40v1.3
				h1.8v1.8H40v0.4h1.5v1.7H40v0.4h2.1v1.8H38.1z M35.1,83.8v0.5h0.8v-0.5H35.1z M35.1,86.5h0.8v-0.6h-0.8V86.5z M36.3,77.7h1.4
				v-0.4h-1.4V77.7z M36.3,79.8h1.4v-0.4h-1.4V79.8z M38.1,83.8v0.5H39v-0.5H38.1z M39,86.5v-0.6h-0.9v0.6H39z"/>
			<path class="st5" d="M59.9,76.9c0,0,0,0.8,0,1.1c-0.3,7.9-0.6,10.9-1.2,11.8c-0.4,0.7-0.9,0.9-1.5,1.1c-0.5,0.1-1.2,0.1-2,0.1
				c-0.1-0.7-0.3-1.8-0.7-2.5c0.6,0.1,1.1,0.1,1.5,0.1c0.2,0,0.4-0.1,0.6-0.4c0.4-0.5,0.6-2.4,0.8-7c-1,3.8-2.6,7.4-5.1,9.5
				c-0.5-0.5-1.4-1.1-2.1-1.5c2.8-2,4.5-5.9,5.4-9.9h-0.5c-0.7,2.8-2.2,6-3.9,7.7c-0.5-0.5-1.3-1.1-2-1.4c1.7-1.3,3-3.8,3.8-6.2
				h-0.5c-0.5,1.2-1.1,2.2-1.8,3.1c-0.4-0.4-1.4-1.1-1.9-1.4c0.2-0.3,0.5-0.6,0.7-0.9h-1v2.4l1.4-0.4l0.3,2.3
				c-0.6,0.2-1.2,0.4-1.7,0.5v6.2h-2.4v-5.6c-0.9,0.3-1.7,0.5-2.5,0.7L43,83.8c0.9-0.2,1.9-0.4,3.1-0.7V80h-0.9
				c-0.2,0.8-0.4,1.5-0.6,2.1c-0.4-0.3-1.3-0.9-1.8-1.2c0.5-1.4,0.8-3.6,0.9-5.7l2.1,0.4c-0.1,0.6-0.1,1.3-0.2,2h0.5v-3.3h2.4v3.3
				h1.3v2c0.9-1.5,1.5-3.4,1.9-5.3l2.3,0.4c-0.2,0.7-0.4,1.5-0.6,2.2H59.9z"/>
			<path class="st5" d="M70.7,81.6v1.5h5.4v2.3h-2.2l1.4,0.5c-0.6,0.9-1.2,1.8-1.7,2.5h3.4v2.4H61.5v-2.4h3.2
				c-0.3-0.8-0.8-1.8-1.3-2.5l1.1-0.4h-2v-2.3h5.4v-1.5h-3.5v-0.8c-0.6,0.3-1.3,0.6-2,0.8c-0.4-0.7-1.1-1.7-1.7-2.4
				c3.4-0.9,6.6-2.5,8.3-5.2l2.5,1.1c-0.2,0.2-0.3,0.5-0.5,0.7c1.7,1.4,4.5,2.7,7.2,3.4c-0.6,0.6-1.4,1.6-1.8,2.3
				c-0.7-0.2-1.5-0.5-2.2-0.9v1H70.7z M65.8,85.5c0.6,0.8,1.1,1.7,1.3,2.4l-1.3,0.6h2v-3H65.8z M71.7,79.3c-0.8-0.5-1.6-1.1-2.3-1.7
				c-0.7,0.6-1.4,1.2-2.2,1.7H71.7z M70.7,85.5v3h1.7l-1-0.4c0.4-0.7,1-1.7,1.3-2.6H70.7z"/>
		</g>
		<g>
			<g>
				
					<ellipse transform="matrix(0.8838 -0.4678 0.4678 0.8838 -37.1533 16.7854)" class="st6" cx="15.2" cy="83.2" rx="7.2" ry="7.8"/>
				<ellipse transform="matrix(0.9229 -0.3851 0.3851 0.9229 -30.6907 12.5406)" class="st7" cx="16" cy="82.9" rx="6.6" ry="7.8"/>
				<ellipse transform="matrix(0.9229 -0.3851 0.3851 0.9229 -30.6907 12.5406)" class="st8" cx="16" cy="82.9" rx="5.6" ry="6.6"/>
				<g>
					<path class="st9" d="M15.5,83.1c-0.2-0.1-0.3-0.1-0.5-0.2c-0.1-0.1-0.3-0.1-0.4-0.3c-0.1-0.1-0.2-0.2-0.3-0.4
						c-0.1-0.1-0.1-0.3-0.2-0.5c-0.1-0.4,0-0.8,0.2-1.1c0.2-0.3,0.5-0.5,0.9-0.6l-0.1-0.5c0-0.2,0.1-0.4,0.3-0.4
						c0.2,0,0.4,0.1,0.4,0.3l0.1,0.5c0.4,0,0.7,0.1,1,0.3c0.2,0.2,0.2,0.3,0.1,0.6c-0.2,0.2-0.4,0.3-0.6,0.1
						c-0.2-0.1-0.4-0.1-0.6-0.1c-0.5,0.1-0.7,0.3-0.6,0.7c0,0.1,0.1,0.2,0.2,0.3c0.1,0.1,0.2,0.2,0.4,0.2c0.1,0.1,0.3,0.1,0.5,0.2
						c0.2,0.1,0.4,0.1,0.5,0.2c0.2,0.1,0.3,0.2,0.5,0.3c0.2,0.1,0.3,0.2,0.4,0.4c0.1,0.2,0.2,0.4,0.2,0.6c0.1,0.4,0,0.8-0.2,1.1
						c-0.2,0.3-0.5,0.5-0.9,0.7l0.1,0.5c0,0.2-0.1,0.4-0.3,0.4c-0.3,0-0.4-0.1-0.4-0.3L16,85.7c-0.4,0-0.9-0.1-1.2-0.3
						c-0.2-0.1-0.3-0.3-0.2-0.6c0.1-0.3,0.4-0.4,0.7-0.2c0.3,0.1,0.6,0.2,0.9,0.1c0.5-0.1,0.7-0.3,0.7-0.8c0-0.1,0-0.1-0.1-0.2
						c0-0.1-0.1-0.1-0.1-0.2c-0.1-0.1-0.1-0.1-0.2-0.1c0,0-0.1-0.1-0.2-0.1c-0.1,0-0.2-0.1-0.2-0.1c0,0-0.1-0.1-0.3-0.1
						C15.6,83.1,15.6,83.1,15.5,83.1z"/>
				</g>
				<path class="st10" d="M14.8,75.3c0,0,5.6,6.9,2,15.3c1.5,0.2,6.9-1.6,5.8-8.5C22.2,79.3,19.4,75.1,14.8,75.3z"/>
			</g>
		</g>
		<g>
			<g>
				
					<ellipse transform="matrix(0.8838 -0.4678 0.4678 0.8838 -28.7532 50.6132)" class="st6" cx="87.5" cy="83.2" rx="7.2" ry="7.8"/>
				
					<ellipse transform="matrix(0.9229 -0.3851 0.3851 0.9229 -25.1135 40.3887)" class="st7" cx="88.3" cy="82.9" rx="6.6" ry="7.8"/>
				
					<ellipse transform="matrix(0.9229 -0.3851 0.3851 0.9229 -25.1135 40.3887)" class="st8" cx="88.3" cy="82.9" rx="5.6" ry="6.6"/>
				<g>
					<path class="st9" d="M87.8,83.1c-0.2-0.1-0.3-0.1-0.5-0.2c-0.1-0.1-0.3-0.1-0.4-0.3c-0.1-0.1-0.2-0.2-0.3-0.4
						c-0.1-0.1-0.1-0.3-0.2-0.5c-0.1-0.4,0-0.8,0.2-1.1c0.2-0.3,0.5-0.5,0.9-0.6l-0.1-0.5c0-0.2,0.1-0.4,0.3-0.4
						c0.2,0,0.4,0.1,0.4,0.3l0.1,0.5c0.4,0,0.7,0.1,1,0.3c0.2,0.2,0.2,0.3,0.1,0.6c-0.2,0.2-0.4,0.3-0.6,0.1
						c-0.2-0.1-0.4-0.1-0.6-0.1c-0.5,0.1-0.7,0.3-0.6,0.7c0,0.1,0.1,0.2,0.2,0.3c0.1,0.1,0.2,0.2,0.4,0.2c0.1,0.1,0.3,0.1,0.5,0.2
						c0.2,0.1,0.4,0.1,0.5,0.2c0.2,0.1,0.3,0.2,0.5,0.3c0.2,0.1,0.3,0.2,0.4,0.4c0.1,0.2,0.2,0.4,0.2,0.6c0.1,0.4,0,0.8-0.2,1.1
						c-0.2,0.3-0.5,0.5-0.9,0.7l0.1,0.5c0,0.2-0.1,0.4-0.3,0.4c-0.3,0-0.4-0.1-0.4-0.3l-0.1-0.5c-0.4,0-0.9-0.1-1.2-0.3
						c-0.2-0.1-0.3-0.3-0.2-0.6c0.1-0.3,0.4-0.4,0.7-0.2c0.3,0.1,0.6,0.2,0.9,0.1c0.5-0.1,0.7-0.3,0.7-0.8c0-0.1,0-0.1-0.1-0.2
						c0-0.1-0.1-0.1-0.1-0.2c-0.1-0.1-0.1-0.1-0.2-0.1c0,0-0.1-0.1-0.2-0.1c-0.1,0-0.2-0.1-0.2-0.1c0,0-0.1-0.1-0.3-0.1
						C88,83.1,87.9,83.1,87.8,83.1z"/>
				</g>
				<path class="st10" d="M87.1,75.3c0,0,5.6,6.9,2,15.3c1.5,0.2,6.9-1.6,5.8-8.5C94.5,79.3,91.7,75.1,87.1,75.3z"/>
			</g>
		</g>
	</g>
</g>
<g class="st0">
	<g class="st1">
		<g>
			<polygon class="st2" points="38.9,36.9 36.5,36.9 36.5,34.7 35.4,34.7 35.4,40.2 36.5,40.2 36.5,37.9 38.9,37.9 38.9,40.2 
				40,40.2 40,34.7 38.9,34.7 			"/>
			<path class="st2" d="M45.2,37.8c0,0.9-0.4,1.4-1.2,1.4c-0.8,0-1.2-0.5-1.2-1.4v-3.1h-1.1v3.1c0,1.5,0.9,2.4,2.3,2.4
				c1.5,0,2.4-0.9,2.4-2.5v-3.1h-1.1V37.8z"/>
			<polygon class="st2" points="57.9,38.5 56.7,34.7 55.8,34.7 54.5,38.5 53.3,34.7 52.2,34.7 54.1,40.2 55,40.2 56.2,36.6 
				57.5,40.2 58.4,40.2 60.3,34.7 59.1,34.7 			"/>
			<polygon class="st2" points="62.2,37.8 64.3,37.8 64.3,36.8 62.2,36.8 62.2,35.7 65.2,35.7 65.2,34.7 61.2,34.7 61.2,40.2 
				65.3,40.2 65.3,39.2 62.2,39.2 			"/>
			<rect x="66.6" y="34.7" class="st2" width="1.1" height="5.4"/>
			<path class="st2" d="M50.9,39l0.5,1.1h1.2l-2.4-5.4l0,0h-1l-2.4,5.4H48l0.5-1.1h0l0-0.1H50.9z M49.7,36.1l0.8,1.8h0l0.1,0.1h-1.7
				l0.1-0.1h0L49.7,36.1z"/>
		</g>
		<g>
			<path class="st3" d="M49.3,26.1c-0.1-0.2-0.2-0.4-0.3-0.7c-0.1-0.3-0.3-0.6-0.4-0.9c-0.8-1.7-1.7-3.3-2.6-4.8
				c-0.7-1.2-1.5-2.4-2.1-3.4l0,0c-2-3-3.5-4.8-3.5-4.8c0,0,0,0,0,0s0,0,0,0c-0.1,0.1-2.8,2.7-2.6,5.4c0.1,1.4,0.8,2.4,1.3,2.9
				c0.2,0.2,0.4,0.4,0.4,0.4c1.1,1,2.8,2.2,4.5,3.2l0,0c1.4,0.8,2.7,1.5,3.7,2.1c0.4,0.2,0.7,0.4,1,0.5c0.2,0.1,0.4,0.2,0.6,0.3
				c0,0,0.1,0,0.1,0C49.2,26.2,49.3,26.2,49.3,26.1L49.3,26.1z"/>
			<path class="st3" d="M48.3,28.3C48.3,28.2,48.2,28.2,48.3,28.3c-0.1-0.1-0.1-0.1-0.1-0.1v0l-0.2,0h-9.7v0.3l0,0c0,0,0,0,0,0
				c1.1,1.9,2.9,3.4,4.8,2.9c1.3-0.3,4.3-2.4,5.2-3.1l0,0C48.3,28.3,48.3,28.3,48.3,28.3z"/>
			<path class="st3" d="M48.4,27.2L48.4,27.2c-0.5-0.3-0.9-0.6-1.5-1c-0.4-0.3-0.9-0.5-1.3-0.8c-0.6-0.4-1.2-0.7-1.8-1.1h0
				c-2.4-1.4-4.8-2.7-6.4-3.6c-1.1-0.6-1.8-1-1.8-1c-0.8,2.4,0.3,4.3,0.3,4.3c0.4,0.9,1,1.6,1.6,2c0.1,0.1,0.1,0.1,0.2,0.2
				C38.4,26.8,39,27,39,27c1,0.4,1.9,0.4,1.9,0.4c0.1,0,5.9,0,7.5,0c0.1,0,0.1-0.1,0.1-0.1C48.5,27.3,48.4,27.2,48.4,27.2z"/>
			<path class="st3" d="M49.1,7.3c-0.4,0-1.6,0.3-1.6,0.3c-2.6,0.7-3.3,3.1-3.3,3.1c-0.1,0.3-0.2,0.6-0.2,0.9
				c-0.1,1.2,0.2,2.2,0.2,2.2c0.4,1.7,1.5,4,2.6,6c0.5,1,1.1,1.9,1.6,2.7c0.3,0.4,0.5,0.8,0.8,1.2c0.5,0.8,0.9,1.4,1.1,1.7
				c0.1,0.1,0.1,0,0.1,0c0.1,0,0.1-0.1,0.1-0.1l0,0c0.1-1.3,0.2-2.4,0.3-3.5c0.2-2.8,0.1-5.2,0-7.1C50.5,9,49.1,7.3,49.1,7.3z"/>
			<path class="st3" d="M54.8,28.2c0,0-0.1,0-0.1,0.1c0,0,0,0.1,0,0.1l0,0c1,0.7,3.8,2.7,5.2,3.1c0,0,2.6,0.9,4.8-2.9L54.8,28.2
				L54.8,28.2z"/>
			<path class="st3" d="M56.1,19.8c1.2-2,2.2-4.3,2.6-6c0,0,0.3-1.1,0.2-2.2c0-0.3-0.1-0.6-0.2-0.9c0,0-0.6-2.4-3.3-3.1
				c0,0-0.8-0.2-1.6-0.3c0,0-1.4,1.8-1.8,7.5c-0.1,1.9-0.2,4.2,0,7c0.1,1.1,0.2,2.3,0.3,3.6h0c0,0.1,0.1,0.1,0.1,0.1
				c0.1,0,0.1-0.1,0.1-0.1l0,0c0.2-0.3,0.6-0.9,1.1-1.7c0.2-0.4,0.5-0.8,0.8-1.2C55,21.6,55.5,20.7,56.1,19.8z"/>
			<path class="st3" d="M67.4,19.8c0,0-0.7,0.4-1.9,1c-1.6,0.9-4,2.2-6.3,3.6c-0.6,0.4-1.2,0.7-1.8,1.1c-0.5,0.3-0.9,0.5-1.3,0.8
				c-0.5,0.3-1,0.7-1.5,1l0,0c0,0-0.1,0.1-0.1,0.1c0,0,0,0.1,0.1,0.1v0c1.6,0,7.5,0,7.6,0c0,0,0.8,0,1.7-0.4c0,0,0.6-0.2,1.4-0.8
				c0.1,0,0.1-0.1,0.2-0.2c0.6-0.5,1.2-1.2,1.6-2.1C67.1,24,68.1,22,67.4,19.8z"/>
			<path class="st3" d="M59.2,23.3c1.7-1,3.5-2.2,4.5-3.2c0,0,0.2-0.1,0.4-0.4c0.5-0.5,1.2-1.5,1.3-2.9c0.2-2.8-2.6-5.3-2.6-5.3
				s-1.5,1.9-3.5,4.9c-0.7,1-1.4,2.1-2.1,3.3c-0.9,1.4-1.7,3-2.6,4.7c-0.2,0.3-0.3,0.6-0.5,1c-0.1,0.2-0.2,0.4-0.3,0.6h0
				c0,0,0,0.1,0,0.2c0,0,0.1,0.1,0.1,0v0c0.1-0.1,0.3-0.2,0.6-0.3c0.3-0.1,0.6-0.3,0.9-0.5C56.4,24.9,57.8,24.2,59.2,23.3z"/>
		</g>
	</g>
	<g class="st1">
		<path class="st11" d="M8.8,64.2h4.7V51.6H9.4v-3.3c2.4-0.4,3.9-1,5.5-2h3.9v17.8h4v4.3H8.8V64.2z"/>
		<path class="st11" d="M25.7,57.3c0-7.6,3.1-11.3,7.8-11.3c4.7,0,7.8,3.8,7.8,11.3c0,7.6-3.2,11.6-7.8,11.6
			C28.9,68.9,25.7,64.9,25.7,57.3z M36.4,57.3c0-6-1.3-7.3-2.8-7.3c-1.6,0-2.8,1.2-2.8,7.3c0,6.1,1.2,7.5,2.8,7.5
			C35.1,64.8,36.4,63.3,36.4,57.3z"/>
		<path class="st11" d="M43.8,57.3c0-7.6,3.1-11.3,7.8-11.3c4.7,0,7.8,3.8,7.8,11.3c0,7.6-3.2,11.6-7.8,11.6
			C47,68.9,43.8,64.9,43.8,57.3z M54.5,57.3c0-6-1.3-7.3-2.8-7.3c-1.6,0-2.8,1.2-2.8,7.3c0,6.1,1.2,7.5,2.8,7.5
			C53.2,64.8,54.5,63.3,54.5,57.3z"/>
		<path class="st11" d="M61.9,57.3c0-7.6,3.1-11.3,7.8-11.3c4.7,0,7.8,3.8,7.8,11.3c0,7.6-3.2,11.6-7.8,11.6
			C65,68.9,61.9,64.9,61.9,57.3z M72.5,57.3c0-6-1.3-7.3-2.8-7.3c-1.6,0-2.8,1.2-2.8,7.3c0,6.1,1.2,7.5,2.8,7.5
			C71.3,64.8,72.5,63.3,72.5,57.3z"/>
		<path class="st11" d="M93,67.4c0.5,0,0.6-0.4,0.7-2.9c0.6,0.4,1.7,0.9,2.4,1.1c-0.2,3.3-0.9,4.3-2.8,4.3h-1.9
			c-2.3,0-2.8-0.8-2.8-3.2v-5h-2.3c-0.3,3.7-1.1,6.6-5.5,8.4c-0.3-0.7-1-1.6-1.6-2.1c3.7-1.4,4.1-3.6,4.3-6.3h-3.8v-2.5h16.1v2.5
			h-4.5v5c0,0.7,0.1,0.8,0.6,0.8H93z M94,56.9H81.3v-2.5H94V56.9z"/>
	</g>
	<g class="st1">
		<g>
			<path class="st5" d="M30.8,86.6c0.6,0.9,1.2,2.1,1.5,2.9l-2,0.9c-0.2-0.8-0.8-2-1.4-3c-0.5,1.4-1.3,2.8-2.1,3.7
				c-0.4-0.4-1.4-1-1.9-1.2c0.8-0.8,1.5-2.1,1.9-3.3h-0.8V74.9h5.7v11.7H30.8z M30.7,86.6H27l2.2,0.5l-0.1,0.2L30.7,86.6z
				 M28.2,78.2h1.2v-1.3h-1.2V78.2z M28.2,81.4h1.2v-1.3h-1.2V81.4z M28.2,84.6h1.2v-1.3h-1.2V84.6z M38.1,81.6v0.5h3.2v4.5h0.7v1.8
				h-0.7v0.6c0,1-0.2,1.6-0.8,1.9c-0.7,0.3-1.5,0.4-2.6,0.4c-0.1-0.6-0.4-1.5-0.6-2.1c0.6,0,1.3,0,1.5,0c0.2,0,0.3-0.1,0.3-0.3v-0.6
				h-4v2.9h-2.3v-2.9H32v-1.8h0.8v-4.5h3.1v-0.5h-3.9v-1.8h2v-0.4h-1.4v-1.7h1.4v-0.4h-1.8v-1.8h1.8v-1.3h2.2v1.3h1.4v-1.3H40v1.3
				h1.8v1.8H40v0.4h1.5v1.7H40v0.4h2.1v1.8H38.1z M35.1,83.8v0.5h0.8v-0.5H35.1z M35.1,86.5h0.8v-0.6h-0.8V86.5z M36.3,77.7h1.4
				v-0.4h-1.4V77.7z M36.3,79.8h1.4v-0.4h-1.4V79.8z M38.1,83.8v0.5H39v-0.5H38.1z M39,86.5v-0.6h-0.9v0.6H39z"/>
			<path class="st5" d="M59.9,76.9c0,0,0,0.8,0,1.1c-0.3,7.9-0.6,10.9-1.2,11.8c-0.4,0.7-0.9,0.9-1.5,1.1c-0.5,0.1-1.2,0.1-2,0.1
				c-0.1-0.7-0.3-1.8-0.7-2.5c0.6,0.1,1.1,0.1,1.5,0.1c0.2,0,0.4-0.1,0.6-0.4c0.4-0.5,0.6-2.4,0.8-7c-1,3.8-2.6,7.4-5.1,9.5
				c-0.5-0.5-1.4-1.1-2.1-1.5c2.8-2,4.5-5.9,5.4-9.9h-0.5c-0.7,2.8-2.2,6-3.9,7.7c-0.5-0.5-1.3-1.1-2-1.4c1.7-1.3,3-3.8,3.8-6.2
				h-0.5c-0.5,1.2-1.1,2.2-1.8,3.1c-0.4-0.4-1.4-1.1-1.9-1.4c0.2-0.3,0.5-0.6,0.7-0.9h-1v2.4l1.4-0.4l0.3,2.3
				c-0.6,0.2-1.2,0.4-1.7,0.5v6.3h-2.4v-5.6c-0.9,0.3-1.7,0.5-2.5,0.7L43,83.8c0.9-0.2,1.9-0.4,3.1-0.7V80h-0.9
				c-0.2,0.8-0.4,1.5-0.6,2.1c-0.4-0.3-1.3-0.9-1.8-1.2c0.5-1.4,0.8-3.6,0.9-5.7l2.1,0.4c-0.1,0.6-0.1,1.3-0.2,2h0.5v-3.3h2.4v3.3
				h1.3v2c0.9-1.5,1.5-3.4,1.9-5.3l2.3,0.4c-0.2,0.7-0.4,1.5-0.6,2.2H59.9z"/>
			<path class="st5" d="M70.7,81.6v1.5h5.4v2.3h-2.2l1.4,0.5c-0.6,0.9-1.2,1.8-1.7,2.5h3.4v2.4H61.5v-2.4h3.2
				c-0.3-0.8-0.8-1.8-1.3-2.5l1.1-0.4h-2v-2.3h5.4v-1.5h-3.5v-0.8c-0.6,0.3-1.3,0.6-2,0.8c-0.4-0.7-1.1-1.7-1.7-2.4
				c3.4-0.9,6.6-2.5,8.3-5.2l2.5,1.1c-0.2,0.2-0.3,0.5-0.5,0.7c1.7,1.4,4.5,2.7,7.2,3.4c-0.6,0.6-1.4,1.6-1.8,2.3
				c-0.7-0.2-1.5-0.5-2.2-0.9v1H70.7z M65.8,85.5c0.6,0.8,1.1,1.7,1.3,2.4l-1.3,0.6h2v-3H65.8z M71.7,79.3c-0.8-0.5-1.6-1.1-2.3-1.7
				c-0.7,0.6-1.4,1.2-2.2,1.7H71.7z M70.7,85.5v3h1.7l-1-0.4c0.4-0.7,1-1.7,1.3-2.6H70.7z"/>
		</g>
		<g>
			<g>
				
					<ellipse transform="matrix(0.8838 -0.4678 0.4678 0.8838 -37.1529 16.7862)" class="st6" cx="15.2" cy="83.2" rx="7.2" ry="7.8"/>
				<ellipse transform="matrix(0.9229 -0.3851 0.3851 0.9229 -30.6904 12.5412)" class="st7" cx="16" cy="82.9" rx="6.6" ry="7.8"/>
				<ellipse transform="matrix(0.9229 -0.3851 0.3851 0.9229 -30.6904 12.5412)" class="st8" cx="16" cy="82.9" rx="5.6" ry="6.6"/>
				<g>
					<path class="st9" d="M15.5,83.1c-0.2-0.1-0.3-0.1-0.5-0.2c-0.1-0.1-0.3-0.1-0.4-0.3c-0.1-0.1-0.2-0.2-0.3-0.4
						c-0.1-0.1-0.1-0.3-0.2-0.5c-0.1-0.4,0-0.8,0.2-1.1c0.2-0.3,0.5-0.5,0.9-0.6l-0.1-0.5c0-0.2,0.1-0.4,0.3-0.4
						c0.2,0,0.4,0.1,0.4,0.3l0.1,0.5c0.4,0,0.7,0.1,1,0.3c0.2,0.2,0.2,0.3,0.1,0.6c-0.2,0.2-0.4,0.3-0.6,0.1
						c-0.2-0.1-0.4-0.1-0.6-0.1c-0.5,0.1-0.7,0.3-0.6,0.7c0,0.1,0.1,0.2,0.2,0.3c0.1,0.1,0.2,0.2,0.4,0.2c0.1,0.1,0.3,0.1,0.5,0.2
						c0.2,0.1,0.4,0.1,0.5,0.2c0.2,0.1,0.3,0.2,0.5,0.3c0.2,0.1,0.3,0.2,0.4,0.4c0.1,0.2,0.2,0.4,0.2,0.6c0.1,0.4,0,0.8-0.2,1.1
						c-0.2,0.3-0.5,0.5-0.9,0.7l0.1,0.5c0,0.2-0.1,0.4-0.3,0.4c-0.3,0-0.4-0.1-0.4-0.3L16,85.7c-0.4,0-0.9-0.1-1.2-0.3
						c-0.2-0.1-0.3-0.3-0.2-0.6c0.1-0.3,0.4-0.4,0.7-0.2c0.3,0.1,0.6,0.2,0.9,0.1c0.5-0.1,0.7-0.3,0.7-0.8c0-0.1,0-0.1-0.1-0.2
						c0-0.1-0.1-0.1-0.1-0.2c-0.1-0.1-0.1-0.1-0.2-0.1c0,0-0.1-0.1-0.2-0.1c-0.1,0-0.2-0.1-0.2-0.1c0,0-0.1-0.1-0.3-0.1
						C15.6,83.1,15.6,83.1,15.5,83.1z"/>
				</g>
				<path class="st10" d="M14.8,75.3c0,0,5.6,6.9,2,15.3c1.5,0.2,6.9-1.6,5.8-8.5C22.2,79.3,19.4,75.1,14.8,75.3z"/>
			</g>
		</g>
		<g>
			<g>
				
					<ellipse transform="matrix(0.8838 -0.4678 0.4678 0.8838 -28.7528 50.614)" class="st6" cx="87.5" cy="83.2" rx="7.2" ry="7.8"/>
				
					<ellipse transform="matrix(0.9229 -0.3851 0.3851 0.9229 -25.1132 40.3893)" class="st7" cx="88.3" cy="82.9" rx="6.6" ry="7.8"/>
				
					<ellipse transform="matrix(0.9229 -0.3851 0.3851 0.9229 -25.1132 40.3893)" class="st8" cx="88.3" cy="82.9" rx="5.6" ry="6.6"/>
				<g>
					<path class="st9" d="M87.8,83.1c-0.2-0.1-0.3-0.1-0.5-0.2c-0.1-0.1-0.3-0.1-0.4-0.3c-0.1-0.1-0.2-0.2-0.3-0.4
						c-0.1-0.1-0.1-0.3-0.2-0.5c-0.1-0.4,0-0.8,0.2-1.1c0.2-0.3,0.5-0.5,0.9-0.6l-0.1-0.5c0-0.2,0.1-0.4,0.3-0.4
						c0.2,0,0.4,0.1,0.4,0.3l0.1,0.5c0.4,0,0.7,0.1,1,0.3c0.2,0.2,0.2,0.3,0.1,0.6c-0.2,0.2-0.4,0.3-0.6,0.1
						c-0.2-0.1-0.4-0.1-0.6-0.1c-0.5,0.1-0.7,0.3-0.6,0.7c0,0.1,0.1,0.2,0.2,0.3c0.1,0.1,0.2,0.2,0.4,0.2c0.1,0.1,0.3,0.1,0.5,0.2
						c0.2,0.1,0.4,0.1,0.5,0.2c0.2,0.1,0.3,0.2,0.5,0.3c0.2,0.1,0.3,0.2,0.4,0.4c0.1,0.2,0.2,0.4,0.2,0.6c0.1,0.4,0,0.8-0.2,1.1
						c-0.2,0.3-0.5,0.5-0.9,0.7l0.1,0.5c0,0.2-0.1,0.4-0.3,0.4c-0.3,0-0.4-0.1-0.4-0.3l-0.1-0.5c-0.4,0-0.9-0.1-1.2-0.3
						c-0.2-0.1-0.3-0.3-0.2-0.6c0.1-0.3,0.4-0.4,0.7-0.2c0.3,0.1,0.6,0.2,0.9,0.1c0.5-0.1,0.7-0.3,0.7-0.8c0-0.1,0-0.1-0.1-0.2
						c0-0.1-0.1-0.1-0.1-0.2c-0.1-0.1-0.1-0.1-0.2-0.1c0,0-0.1-0.1-0.2-0.1c-0.1,0-0.2-0.1-0.2-0.1c0,0-0.1-0.1-0.3-0.1
						C88,83.1,87.9,83.1,87.8,83.1z"/>
				</g>
				<path class="st10" d="M87.1,75.3c0,0,5.6,6.9,2,15.3c1.5,0.2,6.9-1.6,5.8-8.5C94.5,79.3,91.7,75.1,87.1,75.3z"/>
			</g>
		</g>
	</g>
</g>
</svg>
